<svg width="150" height="115" viewBox="0 0 150 115" fill="none" xmlns="http://www.w3.org/2000/svg">
<g id="Arrow" opacity="0.8">
<g id="Group">
<path id="Vector" fill-rule="evenodd" clip-rule="evenodd" d="M145.289 5.16377C134.985 59.1574 71.7019 85.3837 5.63736 91.3469C4.50292 91.451 3.68726 92.2395 3.82318 93.108C3.95911 93.9764 4.98894 94.6008 6.12339 94.4967C74.0386 88.3693 138.796 61.1264 149.388 5.61998C149.555 4.75551 148.771 3.95107 147.636 3.823C146.507 3.69493 145.457 4.2953 145.289 5.16377Z" fill="#F1F6F5"/>
<path id="Vector_2" fill-rule="evenodd" clip-rule="evenodd" d="M7.1204 92.8107C10.0585 91.1658 13.7755 89.1327 14.1885 88.8926C25.3813 82.385 34.6556 74.8969 42.8215 66.1121C43.4854 65.3997 43.2658 64.4072 42.3352 63.8989C41.4047 63.3906 40.1083 63.5588 39.4443 64.2712C31.5293 72.7919 22.5375 80.0558 11.6792 86.3673C11.0466 86.7355 2.68715 91.3019 1.08742 92.3225C0.42871 92.7387 0.224966 93.1309 0.188371 93.227C-0.0311989 93.7313 0.0994569 94.1275 0.277204 94.4156C0.481091 94.7398 0.988061 95.2121 1.9709 95.4522C3.00079 95.7004 5.2907 95.8125 5.86576 95.8765C14.5388 96.861 24.3306 97.3813 33.2442 99.2703C41.7447 101.071 49.4556 104.121 54.4012 110.232C55.0024 110.977 56.2832 111.205 57.2556 110.745C58.228 110.284 58.5261 109.304 57.9249 108.559C52.3938 101.728 43.8513 98.2257 34.3523 96.2126C25.491 94.3356 15.7882 93.7673 7.1204 92.8107Z" fill="#F1F6F5"/>
</g>
</g>
</svg>
