<svg xmlns="http://www.w3.org/2000/svg" version="1.1" xmlns:xlink="http://www.w3.org/1999/xlink" xmlns:svgjs="http://svgjs.dev/svgjs" width="1000" height="623" viewBox="0 0 1000 623"><g transform="matrix(1,0,0,1,-0.6060606060606233,0.2522267206477409)"><svg viewBox="0 0 396 247" data-background-color="#1f1f1f" preserveAspectRatio="xMidYMid meet" height="623" width="1000" xmlns="http://www.w3.org/2000/svg" xmlns:xlink="http://www.w3.org/1999/xlink"><g id="tight-bounds" transform="matrix(1,0,0,1,0.2400000000000091,-0.09999999999999432)"><svg viewBox="0 0 395.52 247.2" height="247.2" width="395.52"><g><svg></svg></g><g><svg viewBox="0 0 395.52 247.2" height="247.2" width="395.52"><mask id="e704f7a9-2f8f-4dc0-8560-d997742231d9"><rect width="640" height="400" fill="white"></rect><g transform="matrix(1,0,0,1,99.49799999999998,37.08)"><svg viewBox="0 0 196.52400000000003 173.04" height="173.04" width="196.52400000000003"><g><svg viewBox="0 0 196.52400000000003 173.04" height="173.04" width="196.52400000000003"><g><svg viewBox="0 0 196.52400000000003 173.04" height="173.04" width="196.52400000000003"><g><svg viewBox="0 0 196.52400000000003 173.04" height="173.04" width="196.52400000000003"><g id="SvgjsG1471"><svg viewBox="0 0 196.52400000000003 173.04" height="173.04" width="196.52400000000003" id="SvgjsSvg1470"><g><svg viewBox="0 0 196.52400000000003 173.04" height="173.04" width="196.52400000000003"><g transform="matrix(1,0,0,1,0,0)"><svg width="196.52400000000003" viewBox="-4.699999988079071 -39 48.70000076293945 43" height="173.04" data-palette-color="#fe6b00"><path d="M29.7 0L26.95-6.8 12.15-6.8 9.4 0-0.7 0 14.75-35 24.5-35 40 0 29.7 0ZM15.05-14.1L24.05-14.1 19.55-25.3 15.05-14.1Z" opacity="1" transform="matrix(1,0,0,1,0,0)" fill="black" class="wordmark-text-0" id="SvgjsPath1469" stroke-width="7" stroke="black" stroke-linejoin="round"></path></svg></g></svg></g></svg></g></svg></g></svg></g></svg></g></svg></g></mask><g transform="matrix(1,0,0,1,99.49799999999998,37.08)"><svg viewBox="0 0 196.52400000000003 173.04" height="173.04" width="196.52400000000003"><g><svg viewBox="0 0 196.52400000000003 173.04" height="173.04" width="196.52400000000003"><g><svg viewBox="0 0 196.52400000000003 173.04" height="173.04" width="196.52400000000003"><g><svg viewBox="0 0 196.52400000000003 173.04" height="173.04" width="196.52400000000003"><g id="textblocktransform"><svg viewBox="0 0 196.52400000000003 173.04" height="173.04" width="196.52400000000003" id="textblock"><g><svg viewBox="0 0 196.52400000000003 173.04" height="173.04" width="196.52400000000003"><g transform="matrix(1,0,0,1,0,0)"><svg width="196.52400000000003" viewBox="-4.699999988079071 -39 48.70000076293945 43" height="173.04" data-palette-color="#fe6b00"><path d="M29.7 0L26.95-6.8 12.15-6.8 9.4 0-0.7 0 14.75-35 24.5-35 40 0 29.7 0ZM15.05-14.1L24.05-14.1 19.55-25.3 15.05-14.1Z" opacity="1" transform="matrix(1,0,0,1,0,0)" fill="#fe6b00" class="wordmark-text-0" data-fill-palette-color="primary" id="text-0"></path></svg></g></svg></g></svg></g></svg></g></svg></g></svg></g></svg></g><g mask="url(#e704f7a9-2f8f-4dc0-8560-d997742231d9)"><g transform="matrix(4.480994052084001, 0, 0, 4.480994052084001, 75.16, 1)"><svg xmlns="http://www.w3.org/2000/svg" xmlns:xlink="http://www.w3.org/1999/xlink" version="1.1" x="0" y="0" viewBox="22.48999786376953 23.4949951171875 54.720001220703125 54.720001220703125" style="enable-background:new 0 0 100 100;" xml:space="preserve" height="54.720001220703125" width="54.720001220703125" class="icon-none" data-fill-palette-color="accent" id="none"><g fill="#f1f6f5" data-fill-palette-color="accent"><path d="M49.85 78.215c-15.087 0-27.36-12.274-27.36-27.36s12.273-27.36 27.36-27.36 27.36 12.274 27.36 27.36S64.937 78.215 49.85 78.215zM49.85 25.494c-13.983 0-25.36 11.376-25.36 25.36s11.377 25.36 25.36 25.36 25.36-11.376 25.36-25.36S63.834 25.494 49.85 25.494z" fill="#f1f6f5" data-fill-palette-color="accent"></path><g fill="#f1f6f5" data-fill-palette-color="accent"><path d="M49.494 66.314c-6.172 0-11.928-0.256-16.207-0.722-6.862-0.747-7.788-1.76-7.788-2.654 0-0.276 0.224-0.5 0.5-0.5 0.274 0 0.498 0.222 0.5 0.496 0.274 0.96 7.765 2.38 22.995 2.38 15.244 0 22.734-1.422 22.997-2.382 0-0.276 0.224-0.497 0.499-0.497 0.276 0 0.5 0.227 0.5 0.503C73.49 66.071 55.124 66.314 49.494 66.314z" fill="#f1f6f5" data-fill-palette-color="accent"></path><path d="M75.974 51.355H23.016c-0.276 0-0.5-0.224-0.5-0.5s0.224-0.5 0.5-0.5h52.958c0.276 0 0.5 0.224 0.5 0.5S76.25 51.355 75.974 51.355z" fill="#f1f6f5" data-fill-palette-color="accent"></path><path d="M25.995 39.291c-0.276 0-0.496-0.244-0.496-0.52 0-2.788 16.781-3.089 23.995-3.089 7.215 0 23.996 0.301 23.996 3.089 0 0.276-0.224 0.5-0.5 0.5s-0.5-0.224-0.5-0.5c-0.445-0.844-7.881-2.089-22.996-2.089-15.114 0-22.55 1.246-23.003 2.13C26.491 39.088 26.271 39.291 25.995 39.291z" fill="#f1f6f5" data-fill-palette-color="accent"></path></g><g fill="#f1f6f5" data-fill-palette-color="accent"><path d="M37.411 74.85c-4.002 0-4.204-19.989-4.204-23.996 0-6.178 0.33-11.939 0.931-16.223 0.977-6.967 2.336-7.773 3.273-7.773 0.276 0 0.5 0.224 0.5 0.5s-0.224 0.5-0.5 0.5c-0.135 0-1.342 0.194-2.283 6.912-0.594 4.239-0.921 9.951-0.921 16.084 0 14.204 1.663 22.996 3.204 22.996 0.276 0 0.5 0.224 0.5 0.5S37.687 74.85 37.411 74.85z" fill="#f1f6f5" data-fill-palette-color="accent"></path><path d="M49.494 77.834c-0.276 0-0.5-0.224-0.5-0.5V24.376c0-0.276 0.224-0.5 0.5-0.5s0.5 0.224 0.5 0.5v52.958C49.994 77.61 49.77 77.834 49.494 77.834z" fill="#f1f6f5" data-fill-palette-color="accent"></path><path d="M61.578 74.85c-0.276 0-0.5-0.224-0.5-0.5s0.224-0.5 0.5-0.5c0.657 0 1.695-1.811 2.454-6.916 0.631-4.238 0.978-9.948 0.978-16.08 0-14.204-1.781-22.996-3.432-22.996-0.276 0-0.5-0.224-0.5-0.5s0.224-0.5 0.5-0.5c4.218 0 4.432 19.989 4.432 23.996 0 6.179-0.351 11.942-0.988 16.227C63.985 74.045 62.56 74.85 61.578 74.85z" fill="#f1f6f5" data-fill-palette-color="accent"></path></g></g></svg></g></g></svg></g><defs></defs></svg><rect width="395.52" height="247.2" fill="none" stroke="none" visibility="hidden"></rect></g></svg></g></svg>