<svg width="62" height="73" viewBox="0 0 62 73" fill="none" xmlns="http://www.w3.org/2000/svg">
<g clip-path="url(#clip0_716_702)">
<path d="M16.0566 27.2171C27.8095 20.5604 39.5625 13.9037 51.3154 7.24693C54.6478 5.35674 57.9951 3.4815 61.3051 1.54649C61.7609 1.285 62.1344 0.73961 61.5666 0.388468C60.9987 0.0373273 59.9975 0.373526 59.467 0.664899C47.6244 7.17222 35.9238 13.956 24.1708 20.6127L14.1438 26.2907C13.6657 26.5597 13.2846 27.1424 13.8749 27.501C14.4651 27.8597 15.5186 27.5235 16.0715 27.2097L16.0566 27.2171Z" fill="#F1F6F5"/>
<path d="M59.1084 1.21781C58.9066 16.8399 58.5555 32.4619 58.0474 48.0765C57.9054 52.5367 57.7411 56.997 57.5767 61.4572C57.5319 62.6376 60.4234 62.0549 60.4608 61.0986C61.0585 45.484 61.4993 29.8694 61.7907 14.2474C61.8729 9.78715 61.9402 5.31943 61.9999 0.859194C62.0149 -0.328709 59.1233 0.268978 59.1159 1.21781H59.1084Z" fill="#F1F6F5"/>
<path d="M13.7329 27.1723C26.0014 35.4727 37.1491 45.2598 48.4463 54.8004C51.6143 57.4751 54.8047 60.1348 58.0325 62.7422C58.548 63.1606 59.3774 63.0186 59.9452 62.7721C60.2292 62.6525 61.2304 62.0324 60.7148 61.614C49.1038 52.2304 38.0457 42.1593 26.1807 33.0894C22.8633 30.5567 19.4861 28.1062 16.0267 25.7678C15.2497 25.2448 12.5823 26.3879 13.7329 27.1649V27.1723Z" fill="#F1F6F5"/>
<path d="M58.9141 0.791951C50.4637 10.1607 42.1626 19.6639 34.011 29.2867C31.6873 32.0286 29.3786 34.7854 27.0773 37.5497C26.629 38.0876 27.4584 38.379 27.8618 38.4014C28.5492 38.4388 29.3263 38.1474 29.7671 37.6169C37.8365 27.9195 46.0479 18.3415 54.4162 8.89808C56.7997 6.20849 59.1981 3.52637 61.6039 0.851719C62.0821 0.321272 61.2005 0.0224287 60.8194 1.54623e-05C60.1096 -0.03734 59.3849 0.268975 58.9141 0.78448V0.791951Z" fill="#F1F6F5"/>
<path d="M55.5743 2.69704C50.6281 13.8514 45.906 25.1178 41.4379 36.4738C40.1677 39.6939 38.9199 42.9214 37.6871 46.1564C37.448 46.7765 38.6136 46.8063 38.9349 46.7765C39.5401 46.7092 40.3396 46.4179 40.5786 45.7978C44.9197 34.3894 49.4924 23.0707 54.3116 11.8566C55.6789 8.67391 57.0612 5.50617 58.4658 2.33843C58.7348 1.7258 57.5095 1.68845 57.2181 1.71833C56.583 1.79304 55.8508 2.08441 55.5743 2.69704V2.69704Z" fill="#F1F6F5"/>
<path d="M37.3585 45.4765C35.3187 48.5023 33.1295 51.4086 30.9926 54.3671C30.6116 54.8901 31.3139 55.1591 31.7323 55.174C32.3824 55.1964 33.1221 54.9424 33.5405 54.4269C35.8343 51.5879 37.9189 48.5621 39.9586 45.5363C40.3248 44.9909 39.6448 44.7294 39.204 44.7145C38.5913 44.6995 37.7246 44.9311 37.3585 45.4765V45.4765Z" fill="#F1F6F5"/>
<path d="M28.0112 38.648C28.6912 44.722 29.1992 50.8483 30.1108 56.8998C30.2527 57.8412 32.9276 57.1688 32.8529 56.1677C32.3896 50.0638 31.5229 43.9748 30.8355 37.8934C30.7309 36.9595 27.8917 37.5871 28.0112 38.648V38.648Z" fill="#F1F6F5"/>
<path d="M34.7582 55.7044C36.0209 54.5464 37.3285 53.4407 38.6808 52.3873C40.0332 51.3338 41.423 50.4448 42.8351 49.4063C43.2535 49.0925 43.1713 48.6144 42.7006 48.4575C42.1029 48.2557 41.3632 48.4575 40.8402 48.7638C39.2935 49.6603 37.8365 50.781 36.4244 51.8717C35.0123 52.9625 33.7271 54.0608 32.4495 55.2337C32.2926 55.3757 32.0983 55.6222 32.1655 55.8538C32.2328 56.0854 32.5167 56.205 32.7259 56.2498C33.376 56.3918 34.2651 56.1602 34.7657 55.7044H34.7582Z" fill="#F1F6F5"/>
<path d="M37.351 51.3787C38.2401 50.527 39.1367 49.6827 40.0258 48.8236C40.1678 48.6816 40.3471 48.4724 40.2874 48.2483C40.2276 48.0242 39.9661 47.9196 39.7718 47.8822C39.4431 47.8224 39.0919 47.8449 38.7781 47.942C38.4643 48.0391 38.128 48.1586 37.8889 48.3902C36.9849 49.2345 36.0883 50.0862 35.1917 50.9379C35.0422 51.0798 34.8629 51.2965 34.9227 51.5206C34.9825 51.7448 35.2514 51.8568 35.4457 51.8942C35.7745 51.954 36.1331 51.9315 36.4544 51.8344C36.7757 51.7373 37.1119 51.6103 37.351 51.3787V51.3787Z" fill="#F1F6F5"/>
<path d="M33.9663 52.7758L33.6973 52.9102C33.3985 53.0597 33.8916 52.8131 33.6525 52.9327L35.2515 53.7022C36.7458 52.0735 38.2999 50.5045 39.8839 48.958C40.0259 48.8161 40.2052 48.6069 40.1454 48.3828C40.0856 48.1586 39.8241 48.054 39.6299 48.0167C39.0247 47.9046 38.2028 48.0839 37.7395 48.5247C36.1331 50.0413 34.5939 51.6327 33.1071 53.2689C32.9875 53.4033 32.7634 53.6275 32.8456 53.8441C32.9128 54.0234 33.0623 54.1131 33.2416 54.1729C33.8244 54.3596 34.4968 54.1729 35.0124 53.8815C35.2141 53.7694 35.4158 53.6723 35.6101 53.5677C35.9762 53.3734 36.3946 52.7832 35.8417 52.5292C35.2365 52.2603 34.5118 52.4993 33.9589 52.7758H33.9663Z" fill="#F1F6F5"/>
<path d="M38.8826 50.3775C39.4654 49.4437 40.0482 48.5098 40.6086 47.5609C40.7132 47.3742 40.758 47.1799 40.6086 47.0006C40.4592 46.8213 40.1005 46.7615 39.8764 46.7615C39.5177 46.7615 39.1441 46.8213 38.8154 46.9707C38.5464 47.0903 38.255 47.2472 38.0906 47.5012C37.4854 48.4276 36.9101 49.3764 36.3273 50.3178C36.2152 50.5045 36.1779 50.7063 36.3273 50.8856C36.4768 51.0649 36.8429 51.1247 37.067 51.1247C37.4331 51.1247 37.8142 51.0649 38.1429 50.908C38.4119 50.7885 38.7183 50.6316 38.8826 50.3701V50.3775Z" fill="#F1F6F5"/>
<path d="M38.4866 48.6069C38.8901 49.1 39.2936 49.5931 39.712 50.0787C39.7942 50.1609 39.8988 50.2207 40.0183 50.2431C40.1528 50.2954 40.2948 50.3178 40.4442 50.3178C40.6235 50.3178 40.7954 50.3029 40.9672 50.2655C41.154 50.2356 41.3334 50.1833 41.5052 50.1086L41.8115 49.9517C41.9759 49.8546 42.1179 49.7351 42.23 49.5782L42.3196 49.3839C42.3495 49.2494 42.3196 49.1299 42.2225 49.0253C41.834 48.5247 41.4305 48.0316 41.0345 47.546C40.9448 47.4564 40.8477 47.4041 40.7281 47.3817C40.5937 47.3294 40.4442 47.3069 40.2948 47.3069C40.1155 47.3069 39.9361 47.3219 39.7643 47.3592C39.5775 47.3891 39.3982 47.4414 39.2189 47.5161L38.9125 47.673C38.7482 47.7702 38.6062 47.8972 38.4866 48.0466L38.3895 48.2483C38.3596 48.3903 38.3895 48.5098 38.4866 48.6144V48.6069Z" fill="#F1F6F5"/>
<path d="M3.73579 37.5422L0.26893 41.0088C0.126969 41.1507 -0.0523518 41.3525 0.00742168 41.5766C0.0671951 41.7858 0.328704 41.9053 0.515496 41.9352C0.836778 41.995 1.18048 41.9726 1.49429 41.8754C1.8081 41.7783 2.14432 41.6662 2.36847 41.4346L5.8428 37.9681C5.98477 37.8261 6.16409 37.6244 6.10431 37.4002C6.04454 37.1911 5.78303 37.0715 5.59624 37.0416C5.27496 36.9819 4.93126 37.0043 4.61745 37.1014C4.30364 37.1985 3.96741 37.3106 3.74326 37.5422H3.73579Z" fill="#F1F6F5"/>
<path d="M14.7492 43.6611L8.42811 49.9891C8.28615 50.131 8.10683 50.3327 8.1666 50.5643C8.22637 50.7735 8.48788 50.8931 8.68215 50.9304C9.27241 51.0425 10.1167 50.8707 10.5575 50.4299L16.8861 44.1018C17.028 43.9599 17.2073 43.7507 17.1476 43.5266C17.0878 43.3099 16.8263 43.1978 16.632 43.1605C16.0418 43.0484 15.19 43.2203 14.7492 43.6685V43.6611Z" fill="#F1F6F5"/>
<path d="M36.9848 59.582C35.0123 61.756 33.0398 63.9376 31.0747 66.1117C30.9328 66.2611 30.746 66.4554 30.8132 66.687C30.873 66.9036 31.142 67.0157 31.3288 67.053C31.8966 67.1576 32.8007 67.0007 33.2191 66.545C35.1991 64.3709 37.1716 62.1894 39.1441 60.0153C39.2861 59.8584 39.4729 59.6716 39.4131 59.4325C39.3533 59.2159 39.0844 59.0963 38.8901 59.059C38.3148 58.9544 37.4032 59.1113 36.9848 59.567V59.582Z" fill="#F1F6F5"/>
<path d="M55.9479 66.3059C53.9753 68.211 52.0103 70.1161 50.0378 72.0213C49.8958 72.1632 49.709 72.3724 49.7688 72.5965C49.8285 72.8207 50.0975 72.9327 50.2918 72.9626C50.897 73.0747 51.7264 72.8954 52.1896 72.4546C54.1696 70.5495 56.1421 68.6443 58.1146 66.7392C58.2641 66.5973 58.4434 66.3806 58.3836 66.1565C58.3238 65.9323 58.0549 65.8203 57.8606 65.7829C57.2479 65.6708 56.4111 65.8502 55.9479 66.2984V66.3059Z" fill="#F1F6F5"/>
</g>
<defs>
<clipPath id="clip0_716_702">
<rect width="62" height="73" fill="white"/>
</clipPath>
</defs>
</svg>
