<svg width="100" height="100" viewBox="0 0 100 100" fill="none" xmlns="http://www.w3.org/2000/svg">
<path d="M56.4778 53.3059L50.0243 56.9334V53.6891V50.1637L56.4778 46.5361V53.3059ZM56.2176 46.1088L49.7743 49.7306L43.331 46.1088L49.7743 42.487L56.2176 46.1088ZM43.0708 53.3059V46.5361L49.5243 50.1637V53.6891V56.9334L43.0708 53.3059Z" stroke="#F1F6F5" stroke-width="0.5"/>
<path d="M35.8149 42.1905L49.6803 34.0889L63.7335 42.1915V57.9541L49.6803 65.912L35.8149 57.955V42.1905Z" stroke="#F1F6F5" stroke-width="0.5"/>
<path d="M29.3403 38.3927L49.7742 26.887L70.2081 38.3927V61.1034L49.7742 72.5138L29.3403 61.1034L29.3403 38.3927Z" stroke="#F1F6F5" stroke-width="0.5"/>
<path d="M35.8673 42.1836L29.5185 38.5362" stroke="#F1F6F5" stroke-width="0.5"/>
<path d="M63.6525 42.2002L70.1789 38.4508" stroke="#F1F6F5" stroke-width="0.5"/>
<path d="M49.7743 65.7612L49.7743 72.3104" stroke="#F1F6F5" stroke-width="0.5"/>
<path d="M49.7743 80.2998L49.7743 88.3998" stroke="#F1F6F5" stroke-width="0.5"/>
<path d="M76.3796 34.8887L83.3331 30.8939" stroke="#F1F6F5" stroke-width="0.5"/>
<path d="M23.1703 34.8892L16.2168 30.8944" stroke="#F1F6F5" stroke-width="0.5"/>
<path d="M23.0574 34.846L49.775 19.6878L76.4927 34.846V65.1548L49.775 80.313L23.0574 65.1548V34.846Z" stroke="#F1F6F5" stroke-width="0.5"/>
<path d="M16.25 30.819L49.775 11.2893L83.3 30.819V69.3557L49.775 88.7113L16.25 69.3557L16.25 30.819Z" stroke="#F1F6F5" stroke-width="0.5"/>
</svg>
