<svg width="563" height="40" viewBox="0 0 563 40" fill="none" xmlns="http://www.w3.org/2000/svg">
<path fill-rule="evenodd" clip-rule="evenodd" d="M12.8222 2.42996C9.12644 2.12146 5.43823 1.79365 1.75258 1.45084C1.03253 1.38346 0.374859 1.88873 0.284627 2.57898C0.194395 3.26923 0.705719 3.88439 1.42576 3.95177C4.74377 4.25736 8.06348 4.55299 11.3823 4.83834C11.5552 4.97252 11.9095 5.17581 12.537 5.3228C32.1033 9.78252 53.8445 8.86687 74.3204 8.90702C93.428 9.79819 112.573 10.4195 131.738 10.8959C129.443 10.951 127.149 11.0012 124.855 11.0412C124.377 11.0509 123.14 11.0796 122.967 11.1082C121.978 11.291 121.871 12.0807 121.853 12.2819C121.845 12.3825 121.806 13.4964 123.105 13.6181C137.061 14.9134 151.174 14.6625 165.215 14.5191C170.438 14.465 175.657 14.4001 180.88 14.3257C182.697 14.2954 187.406 14.3987 188.064 14.3259C188.772 14.2443 189.086 13.8423 189.223 13.5243C200.528 13.6285 211.837 13.8146 223.141 14.0763C225.345 14.223 227.544 14.3742 229.744 14.5255C253.716 16.1962 277.672 17.9515 301.653 19.5216C288.234 19.2111 274.778 18.9466 261.349 18.9298C258.599 18.9262 255.846 18.9936 253.094 19.0102C251.591 19.0148 247.728 18.8067 247.167 18.9379C246.331 19.1404 246.142 19.7264 246.09 20.0199C246.06 20.199 246.016 21.2054 247.35 21.5453C272.106 27.869 297.749 30.5842 323.208 33.5808C329.905 34.3677 336.598 35.1795 343.287 36.011C327.184 35.1918 311.005 33.5389 294.996 32.0857C294.864 31.9467 294.668 31.8096 294.376 31.7059C293.95 31.5492 292.604 31.2943 290.139 30.9511C289.607 30.8775 289.095 31.1217 288.816 31.5334C285.01 31.2056 281.213 30.8942 277.43 30.6152C265.043 29.7002 252.613 29.2068 240.222 28.3472L237.42 28.1285L236.836 28.0837C234.691 27.9039 232.068 27.6727 230.326 27.5193C229.321 27.4254 226.7 27.2401 226.337 27.2238C225.24 27.1841 224.953 28.1389 224.94 28.1831C224.934 28.2077 224.803 29.6201 226.296 29.7565C227.295 29.8496 231.069 30.1531 236.362 30.5707C237.691 30.681 238.857 30.7754 239.553 30.8244L240.089 30.8629C257.015 32.1748 284.148 34.1817 291.874 34.3332C316.831 36.553 342.234 39.4103 367.149 39.0053C367.966 38.9886 368.347 38.7631 368.423 38.7118C368.839 38.4145 368.957 38.0533 368.974 37.7351C368.986 37.5332 368.964 36.7115 367.959 36.4548C367.252 36.2721 362.069 35.8279 360.082 35.5769C347.928 34.0409 335.772 32.5198 323.601 31.0884C301.655 28.5039 279.568 26.1402 258.036 21.4627C259.115 21.4492 260.193 21.4408 261.272 21.4426C274.888 21.458 288.533 21.7264 302.136 22.0454C344.379 23.0348 387.156 28.3957 429.368 27.8044C430.233 27.7938 430.642 27.5719 430.722 27.5211C431.161 27.2217 431.28 26.8454 431.297 26.5221C431.308 26.3251 431.279 25.4923 430.253 25.238C429.407 25.0273 423.208 24.5183 420.831 24.2323C411.339 23.0902 401.84 21.9421 392.317 21.0147C376.596 19.4868 360.821 18.1453 345.028 17.0151C343.71 16.6316 342.34 16.2669 340.923 15.9215C351.595 16.4629 362.253 17.0889 372.896 17.8299C416.521 20.8538 460.065 24.5539 503.571 28.5592C521.589 30.2203 539.764 32.863 557.864 33.7922C558.506 33.824 559.911 34.0459 560.611 34.0801C561.01 34.1011 561.31 34.0533 561.455 34.0109C562.06 33.8244 562.291 33.432 562.386 33.1188C562.465 32.8747 562.65 32.0695 561.62 31.5401C539.489 20.153 502.387 20.9453 478.411 18.328C380.509 7.64211 281.866 3.46768 183.12 1.83821C143.64 1.1847 104.256 0.568897 64.7344 1.11032C50.7092 1.30145 36.6882 1.2745 22.6662 2.12723C20.8357 2.24224 16.9924 2.22493 14.5198 2.31313C13.8539 2.3392 13.2723 2.38117 12.8222 2.42996ZM554.233 31.0609C532.102 22.6341 499.662 23.1829 478.041 20.8233C380.222 10.1482 281.663 5.97443 183.002 4.34563C143.549 3.69567 104.194 3.07856 64.6983 3.62339C54.6516 3.75767 44.6055 3.78513 34.5616 4.10286C47.8367 5.02046 61.1339 5.77314 74.4635 6.39768C77.2505 6.40087 80.0164 6.42159 82.7496 6.47889C116.321 7.16929 149.962 7.90951 183.524 9.40242C194.659 9.58128 205.795 9.74504 216.94 9.91509C238.586 9.53642 268.145 8.92654 295.14 10.3002C304.425 10.7747 313.408 11.485 321.668 12.5242C338.868 13.2305 356.032 14.1357 373.158 15.3258C416.805 18.3474 460.369 22.0551 503.899 26.0636C520.602 27.6009 537.435 29.9894 554.233 31.0609ZM344.509 19.5015C334.39 18.782 324.264 18.1533 314.142 17.6168C309.637 17.382 305.131 17.1521 300.622 16.9321C303.079 17.0963 305.538 17.2555 307.996 17.4096C319.533 18.1489 331.096 18.9068 342.654 19.4353C343.229 19.4585 343.995 19.5268 344.854 19.6069L344.525 19.5085L344.509 19.5015ZM406.729 25.0948C401.817 24.533 396.902 23.9911 391.979 23.5142C379.2 22.2741 366.388 21.1516 353.558 20.1693C353.846 20.3793 353.99 20.571 354.053 20.691C354.239 21.0302 354.24 21.3508 354.161 21.6355C354.111 21.8122 354.02 22.0192 353.84 22.2097C371.479 23.3846 389.135 24.5971 406.729 25.0948ZM327.388 15.8504C325.472 15.5576 323.506 15.2838 321.495 15.0297C311.44 14.6186 301.377 14.2676 291.319 13.9682C298.999 14.3273 306.682 14.7072 314.359 15.1119C318.702 15.3411 323.046 15.5857 327.388 15.8504Z" fill="#F1F6F5"/>
</svg>
