<svg width="200" height="215" viewBox="0 0 200 215" fill="none" xmlns="http://www.w3.org/2000/svg">
<g opacity="0.8">
<path fill-rule="evenodd" clip-rule="evenodd" d="M194.679 31.4698C175.91 66.3698 138.418 80.5585 103.595 60.9107C102.436 60.2565 100.966 60.6655 100.312 61.8104C99.6576 62.9758 100.067 64.4478 101.226 65.1021C138.55 86.181 178.805 71.1539 198.923 33.7597C199.553 32.5943 199.113 31.1221 197.942 30.4883C196.77 29.8749 195.308 30.3045 194.679 31.4698Z" fill="#F1F6F5"/>
<path d="M132.899 45.9428C136.776 45.9428 139.919 42.7999 139.919 38.9229C139.919 35.0459 136.776 31.9031 132.899 31.9031C129.022 31.9031 125.879 35.0459 125.879 38.9229C125.879 42.7999 129.022 45.9428 132.899 45.9428Z" fill="#F1F6F5"/>
<path d="M161.961 38.4754C165.762 38.4754 168.843 35.394 168.843 31.5927C168.843 27.7915 165.762 24.7101 161.961 24.7101C158.159 24.7101 155.078 27.7915 155.078 31.5927C155.078 35.394 158.159 38.4754 161.961 38.4754Z" fill="#F1F6F5"/>
</g>
<g opacity="0.8">
<path fill-rule="evenodd" clip-rule="evenodd" d="M145.289 105.164C134.985 159.157 71.7019 185.384 5.63736 191.347C4.50292 191.451 3.68726 192.239 3.82318 193.108C3.95911 193.976 4.98894 194.601 6.12339 194.497C74.0386 188.369 138.796 161.126 149.388 105.62C149.555 104.756 148.771 103.951 147.636 103.823C146.507 103.695 145.457 104.295 145.289 105.164Z" fill="#F1F6F5"/>
<path fill-rule="evenodd" clip-rule="evenodd" d="M7.1204 192.811C10.0585 191.166 13.7755 189.133 14.1885 188.893C25.3813 182.385 34.6556 174.897 42.8215 166.112C43.4854 165.4 43.2658 164.407 42.3352 163.899C41.4047 163.391 40.1083 163.559 39.4443 164.271C31.5293 172.792 22.5375 180.056 11.6792 186.367C11.0466 186.735 2.68715 191.302 1.08742 192.322C0.42871 192.739 0.224966 193.131 0.188371 193.227C-0.0311989 193.731 0.0994569 194.127 0.277204 194.416C0.481091 194.74 0.988061 195.212 1.9709 195.452C3.00079 195.7 5.2907 195.812 5.86576 195.876C14.5388 196.861 24.3306 197.381 33.2442 199.27C41.7447 201.071 49.4556 204.121 54.4012 210.232C55.0024 210.977 56.2832 211.205 57.2556 210.745C58.228 210.284 58.5261 209.304 57.9249 208.559C52.3938 201.728 43.8513 198.226 34.3523 196.213C25.491 194.336 15.7882 193.767 7.1204 192.811Z" fill="#F1F6F5"/>
</g>
</svg>
