<svg width="127" height="119" viewBox="0 0 127 119" fill="none" xmlns="http://www.w3.org/2000/svg">
<g id="Frame 26">
<path id="star/wide" d="M89.5 80.3L89.7114 87.4412C89.8407 91.8102 92.6405 95.314 96.13 95.4737L102 95.7423L96.13 96.0109C92.6405 96.1706 89.8407 99.6744 89.7114 104.043L89.5 111.185L89.2886 104.043C89.1593 99.6744 86.3595 96.1706 82.87 96.0109L77 95.7423L82.87 95.4737C86.3595 95.314 89.1593 91.8102 89.2886 87.4412L89.5 80.3Z" fill="#F1F6F5"/>
<path id="star/wide_2" d="M102.5 56.8277L102.711 63.9689C102.841 68.3379 105.641 71.8417 109.13 72.0014L115 72.27L109.13 72.5386C105.641 72.6983 102.841 76.2021 102.711 80.5711L102.5 87.7123L102.289 80.5711C102.159 76.2021 99.3595 72.6983 95.87 72.5386L90 72.27L95.87 72.0014C99.3595 71.8417 102.159 68.3379 102.289 63.9689L102.5 56.8277Z" fill="#F1F6F5"/>
<path id="star/wide_3" d="M114.5 87.7123L114.711 94.8535C114.841 99.2224 117.641 102.726 121.13 102.886L127 103.155L121.13 103.423C117.641 103.583 114.841 107.087 114.711 111.456L114.5 118.597L114.289 111.456C114.159 107.087 111.359 103.583 107.87 103.423L102 103.155L107.87 102.886C111.359 102.726 114.159 99.2224 114.289 94.8535L114.5 87.7123Z" fill="#F1F6F5"/>
<path id="star/wide_4" d="M45 0L45.761 25.7083C46.2265 41.4366 56.3059 54.0504 68.8679 54.6252L90 55.5923L68.8679 56.5594C56.3059 57.1343 46.2265 69.748 45.761 85.4763L45 111.185L44.239 85.4763C43.7735 69.748 33.6941 57.1343 21.1321 56.5594L0 55.5923L21.1321 54.6252C33.6941 54.0504 43.7735 41.4366 44.239 25.7083L45 0Z" fill="#F1F6F5"/>
</g>
</svg>
