<svg width="150" height="220" viewBox="0 0 150 220" fill="none" xmlns="http://www.w3.org/2000/svg">
<g id="tornado" opacity="0.8">
<g id="Group">
<path id="Vector" fill-rule="evenodd" clip-rule="evenodd" d="M115.167 55.7787C93.5886 42.412 69.8323 41.0534 43.2952 42.2474C38.8144 42.4498 27.8971 43.2972 19.73 46.1277C13.9543 48.1279 9.5919 51.1745 9.29395 55.4734C9.03037 59.2302 11.754 62.1601 16.0362 64.3353C25.3339 69.0596 42.0537 70.2913 47.1877 70.2844C70.3136 70.2467 93.6191 65.7899 114.938 57.7308C116.252 58.568 117.562 59.4531 118.865 60.3863C122.784 63.2031 127.131 66.9153 130.153 71.1593C133.091 75.2832 134.783 79.9149 133.469 84.7044C130.73 94.6985 118.636 102.346 103.715 108.034C100.464 109.276 97.0799 110.419 93.6191 111.472C91.6174 110.244 89.3407 109.115 86.8463 108.082C67.4945 100.068 35.3001 97.5907 25.5707 98.023C21.2389 98.2151 13.2629 98.4724 7.45663 100.709C3.30436 102.308 0.244501 104.902 0.0114843 109.019C-0.198612 112.686 2.49063 115.462 6.70785 117.469C15.8146 121.802 32.1563 122.574 37.4736 122.533C49.5637 122.444 72.6209 119.541 93.344 113.362C97.2977 115.922 99.9181 118.91 100.411 122.43C101.099 127.326 97.1296 131.817 91.0521 135.835C89.2185 137.046 87.1939 138.212 85.0357 139.32C84.8332 139.269 84.6346 139.221 84.4321 139.169C68.163 135.138 47.5507 134.953 38.4669 135.588C34.3681 135.872 26.9841 136.85 21.7355 139.434C17.992 141.279 15.3333 143.938 15.3486 147.623C15.3639 151.407 18.5573 153.49 22.8547 154.481C28.7183 155.83 36.6218 155.157 39.5555 154.89C47.818 154.142 69.7178 148.965 85.2687 141.17C90.0169 142.429 94.3373 144.041 97.779 146.103C101.416 148.275 104.07 150.944 105.144 154.241C107.783 162.376 101.022 169.21 91.1246 174.573C88.1107 176.206 84.8027 177.698 81.3533 179.04C78.7825 176.573 75.0886 174.542 70.7606 172.953C60.5614 169.214 46.8478 167.875 36.7173 168.675C33.2221 168.949 27.2057 169.721 23.0229 171.896C19.9975 173.468 17.9155 175.76 18.0722 179.012C18.2593 182.964 21.2313 185.407 25.2728 186.865C30.8957 188.89 38.6159 188.986 42.6917 189.071C50.6945 189.236 66.7344 186.382 80.8299 181.098C81.7773 182.186 82.4839 183.359 82.9041 184.628C84.4932 189.404 81.9377 195.357 73.1213 202.73C68.8506 206.298 64.175 209.458 58.9265 211.76C51.363 215.081 43.5053 216.831 35.2581 218.107C34.7385 218.189 34.3872 218.632 34.4789 219.098C34.5667 219.565 35.0633 219.881 35.5828 219.798C44.0096 218.495 52.0391 216.693 59.7668 213.3C65.1835 210.923 70.0157 207.667 74.4239 203.985C84.0196 195.961 86.4643 189.336 84.7377 184.138C84.2946 182.81 83.5764 181.568 82.6253 180.408C85.9715 179.091 89.1765 177.633 92.1102 176.041C102.863 170.215 109.846 162.595 106.977 153.761C104.857 147.235 97.2136 142.823 87.5148 140C89.1688 139.101 90.735 138.174 92.1828 137.217C98.9211 132.764 103.07 127.642 102.309 122.218C101.801 118.605 99.3223 115.438 95.4909 112.707C98.5583 111.75 101.565 110.721 104.464 109.613C120.019 103.681 132.468 95.5356 135.325 85.1126C136.483 80.8926 135.562 76.7791 133.488 72.9742C130.458 67.4334 124.95 62.5615 120.057 59.0483C119.041 58.3175 118.017 57.6142 116.99 56.9418C119.354 56.0155 121.696 55.048 124.007 54.0324C129.725 51.5245 136.483 48.2994 141.663 43.9937C145.2 41.05 148.004 37.6054 149.302 33.5535C151.17 27.7519 149.104 22.8115 145.284 18.739C141.59 14.797 136.234 11.6783 131.36 9.38648C110.026 -0.645379 84.8829 -3.42438 62.1696 4.92979C61.6844 5.10819 61.4514 5.6091 61.65 6.04825C61.8487 6.48397 62.4064 6.69672 62.8953 6.51489C85.0777 -1.64372 109.636 1.10777 130.474 10.9063C135.142 13.0987 140.283 16.0698 143.824 19.8438C147.236 23.4839 149.138 27.8892 147.469 33.0766C145.956 37.7838 142.22 41.5852 137.751 44.7244C133.175 47.9392 127.819 50.454 123.166 52.492C120.534 53.6447 117.864 54.7426 115.167 55.7787ZM79.4853 179.75C77.1208 177.653 73.828 175.931 70.0386 174.542C60.1068 170.898 46.7522 169.605 36.8853 170.383C33.5926 170.644 27.9161 171.33 23.9816 173.379C21.5941 174.621 19.8561 176.374 19.9783 178.94C20.1349 182.172 22.679 184.079 25.9871 185.273C31.3923 187.219 38.8183 187.274 42.7375 187.356C50.4614 187.514 65.829 184.786 79.4853 179.75ZM82.6291 140.511C66.8069 136.84 47.3291 136.689 38.612 137.296C34.708 137.567 27.6564 138.473 22.6523 140.94C19.5619 142.46 17.2433 144.573 17.2586 147.616C17.27 150.584 19.9592 152.042 23.3284 152.817C28.959 154.114 36.5492 153.438 39.3645 153.185C47.1915 152.474 67.4945 147.723 82.6291 140.511ZM91.3195 112.151C89.7151 111.259 87.9427 110.426 86.048 109.64C66.9789 101.742 35.2505 99.3096 25.6662 99.735C21.4911 99.9203 13.8054 100.133 8.20915 102.288C4.75974 103.612 2.11254 105.688 1.91772 109.108C1.80694 111.067 2.78479 112.68 4.43883 114.021C6.23038 115.479 8.78973 116.615 11.6967 117.521C20.7041 120.327 33.0234 120.852 37.4583 120.818C49.1435 120.732 71.1922 117.984 91.3195 112.151ZM113.066 56.5747C92.1217 44.0108 69.0683 42.8032 43.3907 43.9594C39.0245 44.1583 28.3784 44.9715 20.4177 47.7264C17.8468 48.6185 15.5587 49.706 13.8855 51.0612C12.3346 52.3204 11.3223 53.8026 11.2001 55.5797C11.0588 57.6143 12.052 59.3159 13.7442 60.7569C15.574 62.3111 18.1906 63.5599 21.1625 64.5755C30.3533 67.7147 42.9056 68.5758 47.184 68.569C69.649 68.5312 92.2898 64.277 113.066 56.5747Z" fill="#F1F6F5"/>
</g>
</g>
</svg>
