<svg width="1536" height="1248" viewBox="0 0 1536 1248" fill="none" xmlns="http://www.w3.org/2000/svg">
<g opacity="0.5">
<path d="M-975.278 115.427C-751.652 176.925 -553.525 263.03 -393.252 368.371C-157.037 525.557 -169.886 621.857 56.9947 711.652C277.506 798.857 580.159 822.887 825.709 789.944C1160.76 744.956 1175.91 622.519 1605.4 428.596C1857.98 314.65 2331.62 100.732 2890.25 121.449C3172.48 131.929 3453.06 201.428 3713.88 265.989C4033.55 345.124 4079.45 385.776 4251.98 404.506C4456.89 426.789 4773.71 410.95 5229.34 211.787" stroke="#FE6B00" stroke-miterlimit="10"/>
<path d="M-981.535 137.951C-780.027 191.978 -598.367 265.88 -445.632 355.964C-431.026 364.697 -416.421 373.671 -401.705 382.885C-163.075 535.133 -172.519 627.096 51.5064 714.663C149.158 752.98 259.727 780.269 376.782 794.942C460.627 805.41 546.619 809.783 632.544 807.951C696.8 806.561 760.566 801.207 822.636 791.991C891.803 782.241 957.554 766.287 1017.23 744.775C1127.05 705.027 1203.92 651.366 1322.19 584.035C1411.28 533.362 1508.21 487.016 1611.89 445.519C1666.79 423.235 1730.93 396.375 1805.05 368.853C2003.38 295.017 2257.17 214.798 2561.69 187.095C2665.02 177.425 2770.01 174.193 2874.66 177.459C2890.7 177.94 2906.62 178.663 2922.32 179.506C3077.82 187.757 3225.97 209.619 3377.29 238.647C3490.51 260.087 3597.58 286.827 3703.78 311.94C3748.25 322.66 3788 332.417 3823.91 341.571C4040.8 397.038 4097.14 426.789 4245.28 439.797C4357.84 449.674 4503.46 447.928 4688.28 412.756C4839.82 383.969 5019.26 332.116 5229.34 246.356" stroke="#FE6B00" stroke-miterlimit="10"/>
<path d="M-987.354 160.596C-787.933 212.581 -607.392 284.003 -454.526 371.382C-439.884 379.813 -425.242 388.446 -410.6 397.279C-169.004 544.648 -174.824 632.155 46.1264 717.674C144.011 756.492 254.932 784.308 372.5 799.519C456.84 810.055 543.395 814.269 629.8 812.046C694.152 810.247 757.87 804.18 819.562 793.978C888.386 783.069 953.78 766.478 1013.5 744.775C1127.71 703.822 1208.75 651.908 1325.71 589.034C1415.21 541.312 1513.26 498.659 1618.37 461.719C1673.27 441.965 1735.98 417.755 1809.34 393.785C2004.81 329.887 2243.11 262.857 2544.56 240.995C2648.7 233.126 2753.95 230.546 2858.96 233.287C2875.21 233.769 2891.25 234.371 2907.06 235.154C3065.2 242.742 3209.6 261.472 3364.01 287.308C3480.3 306.821 3586.38 333.079 3693.45 357.831C3737.93 368.07 3778.12 377.404 3814.91 386.137C4032.46 437.99 4090.77 465.332 4238.36 474.968C4350.81 482.316 4495.33 478.281 4681.14 442.688C4832.91 413.539 5014.65 362.649 5229.34 281.045" stroke="#FE6B00" stroke-miterlimit="10"/>
<path d="M-994.274 182.878C-796.483 232.895 -616.679 301.985 -463.422 386.859C-448.816 395.05 -434.101 403.361 -419.495 411.852C-174.715 554.284 -177.46 637.454 40.5249 720.685C143.752 760.071 245.442 788.437 367.887 804.156C452.792 814.779 539.99 818.833 626.944 816.201C691.418 813.978 755.094 807.176 816.377 795.965C884.893 783.906 950.016 766.677 1009.87 744.774C1128.26 702.617 1213.36 652.57 1329.11 594.213C1419.12 549.417 1518.37 510.549 1624.84 478.401C1680.3 461.176 1741.14 439.616 1813.62 419.2C2007.22 364.636 2229.05 311.217 2527.42 295.077C2632.39 289.031 2738.01 287.119 2843.48 289.355C2859.84 289.777 2876.42 290.319 2891.79 291.042C3046.95 298.011 3200.52 313.157 3350.39 336.27C3469.76 353.796 3574.96 379.813 3683.35 403.903C3727.83 413.779 3768.35 422.632 3806.12 430.944C4024.22 479.123 4084.62 503.936 4231.55 510.38C4344 515.318 4487.75 508.814 4674.22 472.8C4826.32 443.651 5010.04 393.122 5229.34 315.372" stroke="#FE6B00" stroke-miterlimit="10"/>
<path d="M-1000.64 205.343C-804.765 253.415 -625.909 320.084 -472.318 402.278C-457.713 410.227 -442.887 418.177 -428.392 426.367C-180.976 564.101 -179.878 642.393 35.0329 723.757C140.566 763.565 238.852 792.714 363.493 808.794C448.886 819.521 536.666 823.396 624.087 820.297C688.856 817.721 752.652 810.201 813.63 797.954C881.686 784.842 946.471 767.098 1006.47 745.137C1129.02 701.715 1218.74 653.716 1332.84 599.333C1413.34 561.03 1508.55 527.545 1631.65 495.024C1687.55 480.208 1747.07 461.238 1818.34 444.435C2011.18 398.965 2215.43 359.518 2510.18 349.099C2615.82 344.826 2721.79 343.56 2827.66 345.305C2844.24 345.666 2860.61 346.148 2876.31 346.75C3031.75 352.34 3186.05 365.153 3337.54 385.053C3460.2 400.591 3563.87 426.428 3673.36 449.674C3717.28 459.19 3758.9 467.742 3797.56 475.511C4016.09 520.318 4078.58 542.3 4225.07 545.492C4337.52 547.961 4480.29 539.108 4667.52 502.732C4819.62 473.162 5005.54 423.537 5229.34 349.762" stroke="#FE6B00" stroke-miterlimit="10"/>
<path d="M-1006.9 227.806C-812.979 273.966 -635.115 338.214 -481.211 417.694C-466.605 425.343 -451.78 432.931 -437.284 440.76C-186.903 573.255 -182.401 647.632 29.3249 726.707C137.164 766.998 232.046 796.929 358.774 813.371C444.735 824.19 533.167 827.884 621.125 824.332C685.908 821.383 749.53 813.163 809.899 799.941C877.549 785.721 942.054 767.356 1002.19 745.196C1129.02 700.63 1223.47 654.859 1335.7 604.451C1418.61 567.353 1515.91 538.204 1637.58 511.585C1694.14 499.178 1752.34 482.918 1822.08 469.427C2015.68 432.69 2201.16 407.577 2492.83 402.759C2594.19 401.072 2706.32 398.965 2811.85 400.952C2828.65 401.253 2844.79 401.675 2860.83 402.156C3016.31 406.361 3171.02 416.829 3323.7 433.473C3449.44 447.024 3552.34 472.68 3663.04 495.444C3707.51 504.599 3748.91 512.488 3788.56 519.956C4007.53 561.692 4072.43 582.168 4217.94 580.903C4330.39 579.94 4472.27 569.641 4660.17 532.724C4812.37 502.611 5000.6 454.01 5228.91 384.27" stroke="#FE6B00" stroke-miterlimit="10"/>
<path d="M-1013.27 250.21C-821.27 294.505 -644.37 356.35 -490.108 433.112C-475.502 440.46 -460.567 447.747 -446.181 455.215C-192.725 582.891 -184.819 652.691 23.7224 729.719C133.539 770.37 225.235 801.145 354.269 818.008C440.634 828.853 529.521 832.366 617.828 828.427C682.824 825.068 746.452 816.126 806.383 801.928C873.48 786.539 937.664 767.578 998.012 745.317C1129.02 699.486 1228.63 655.703 1338.44 609.51C1423.88 573.376 1523.37 548.924 1643.4 528.147C1700.84 518.149 1763.32 512.368 1825.7 494.963C2028.09 490.326 2187.32 446.783 2474.93 457.021C2576.51 460.695 2690.39 455.576 2795.48 457.021C2812.51 457.323 2828.98 457.624 2844.79 458.045C3014.13 462.442 3143.71 467.561 3309.75 482.135C3438.57 493.638 3540.37 519.173 3652.27 541.215C3696.2 550.008 3738.48 557.476 3779.11 564.522C3998.19 602.584 4065.4 618.725 4210.69 615.713C4323.25 613.244 4464.25 599.633 4652.81 562.415C4805.23 532.302 4995.43 484.122 5228.46 418.417" stroke="#FE6B00" stroke-miterlimit="10"/>
<path d="M-1019.64 272.673C-829.58 315.1 -653.652 374.503 -499.001 448.469C-484.286 455.575 -469.351 462.501 -455.075 469.608C-197.995 592.346 -186.794 657.689 18.5628 732.729C131.125 773.802 218.977 805.36 350.098 822.645C437.211 833.624 526.953 836.938 615.963 832.461C688.332 829.149 747.743 817.224 804.188 803.854C870.787 787.327 934.741 767.766 995.379 745.376C1130.56 698.341 1235.77 656.846 1343.06 614.568C1430.91 579.819 1533.04 559.764 1650.54 544.648C1709.18 537.119 1770.24 535.373 1830.75 520.196C2033.14 528.748 2173.71 504.839 2458.46 510.922C2560.59 513.15 2675.79 511.825 2780.55 513.09C2797.68 513.09 2814.38 513.511 2830.08 513.813C3002.27 517.366 3128.12 519.173 3297.13 531.278C3428.91 540.793 3529.72 566.148 3642.83 587.528C3686.76 595.959 3729.36 602.945 3770.98 609.57C3990.62 644.38 4059.91 657.75 4204.65 651.305C4317.21 646.427 4457.23 630.468 4646.55 592.827C4799.08 562.715 4991.48 515.017 5229.13 453.347" stroke="#FE6B00" stroke-miterlimit="10"/>
<path d="M-1025.9 295.077C-837.874 335.701 -662.975 392.637 -507.9 463.707C-493.185 470.572 -478.14 477.197 -463.315 483.882C-203.599 601.681 -188.774 662.508 13.0684 735.501C127.936 776.996 212.385 809.396 345.702 826.982C433.232 838.084 523.485 841.258 612.885 836.377C686.242 832.703 744.664 819.815 800.78 805.662C870.074 788.197 927.069 767.721 991.312 745.438C1130.78 697.258 1256.96 668.29 1346.24 619.628C1447.38 595.96 1541.93 550.791 1657.13 561.21C1717.09 566.631 1776.83 558.32 1835.25 545.432C2037.75 567.112 2160.42 553.441 2441.55 564.884C2544.11 569.04 2661.18 568.076 2765.06 568.979C2782.52 568.979 2799.22 568.979 2815.03 569.521C2989.86 572.232 3112.08 570.545 3283.95 580.061C3419.13 587.468 3518.62 612.703 3632.83 633.42C3676.76 641.49 3719.81 648.054 3762.31 654.197C3981.94 685.815 4053.98 695.993 4198.17 686.538C4310.84 679.13 4449.97 660.822 4639.85 622.76C4792.6 592.286 4986.65 545.432 5229.34 487.796" stroke="#FE6B00" stroke-miterlimit="10"/>
<path d="M-1032.27 317.481C-846.163 356.386 -672.249 410.963 -516.793 479.245C-502.078 485.809 -487.033 491.832 -472.098 498.396C-208.539 611.257 -191.298 667.567 7.5794 738.572C124.863 780.428 205.798 813.672 341.201 831.679C429.284 842.832 520.148 845.824 610.031 840.532C684.377 836.497 741.811 822.465 797.707 807.71C865.684 789.643 922.019 768.203 987.58 745.498C1131.22 695.993 1263.99 670.458 1349.97 624.627C1454.63 603.548 1555.11 561.271 1663.94 577.712C1723.46 586.685 1783.53 581.325 1839.64 570.666C2042.25 605.476 2147.13 602.163 2424.53 618.845C2527.53 624.868 2645.48 624.386 2749.58 624.868H2799.77C2977.45 626.675 3096.27 621.676 3270.77 628.481C3409.14 633.841 3507.42 659.015 3622.84 679.01C3666.77 686.719 3710.14 692.801 3753.63 698.462C3973.26 727.009 4047.94 734.055 4191.58 721.468C4304.25 711.531 4442.51 690.874 4633.04 652.451C4785.9 621.676 4982.59 575.604 5229.45 521.944" stroke="#FE6B00" stroke-miterlimit="10"/>
<path d="M-1038.64 339.824C-854.675 377.076 -681.922 429.226 -526.126 494.541C-511.301 500.564 -496.256 506.586 -481.321 512.609C-214.907 620.471 -193.932 672.264 1.87011 741.463C121.57 783.62 199.539 817.767 336.59 836.136C425.164 847.432 516.628 850.264 606.958 844.507C682.401 840.111 738.737 825.295 794.304 809.577C860.963 790.546 916.749 768.564 983.627 745.498C1131.55 694.788 1270.8 672.566 1352.83 629.625C1461.11 611.076 1561.48 604.451 1669.87 594.153C1732.03 600.657 1789.35 604.211 1843.6 595.839C2046.21 644.019 2133.07 650.885 2406.96 672.626C2510.4 680.877 2629.88 681.298 2733.55 680.636C2751.34 680.636 2768.36 680.636 2784.07 680.636C2964.6 679.371 3079.47 673.108 3257.04 677.323C3398.71 680.636 3495.67 705.689 3612.41 725.021C3656.34 732.308 3700.26 738.03 3744.19 743.089C3963.82 768.564 4040.69 772.358 4184.11 756.639C4296.89 744.233 4434.16 721.227 4625.57 682.382C4778.55 651.366 4976.99 606.017 5228.79 556.332" stroke="#FE6B00" stroke-miterlimit="10"/>
<path d="M-1044.9 362.228C-862.749 397.805 -690.855 447.536 -534.472 509.899C-519.757 515.922 -504.602 521.522 -489.667 527.184C-219.739 629.987 -195.689 677.324 -3.40111 744.414C118.715 787.053 192.621 821.983 332.307 840.774C421.641 852.203 513.968 854.834 604.981 848.542C681.852 843.785 737.31 828.066 791.669 811.565C857.558 791.751 912.467 769.046 980.443 745.317C1132.43 693.404 1278.37 674.493 1356.67 634.444C1468.47 618.484 1570.38 616.376 1676.79 610.354C1739.71 619.99 1796.16 626.855 1848.43 620.713C2051.04 681.841 2120.01 699.426 2390.26 726.226C2494.15 736.525 2615.06 737.247 2718.39 736.223C2736.4 736.223 2753.43 736.223 2769.24 736.223C2952.41 733.995 3063.77 724.179 3244.19 725.925C3388.93 727.19 3484.8 752.183 3602.75 770.792C3646.67 777.779 3690.6 782.837 3736.17 787.716C3955.8 810.24 4035.75 810.721 4178.18 791.871C4290.96 776.935 4427.36 751.641 4619.42 712.374C4772.51 681.118 4973.58 636.491 5229.56 590.841" stroke="#FE6B00" stroke-miterlimit="10"/>
<path d="M-1051.27 384.571C-871.074 418.562 -700.194 465.895 -543.366 525.256C-528.541 531.278 -513.387 536.217 -498.452 541.577C-224.899 639.261 -197.775 682.141 -8.89072 747.365C115.641 790.305 186.033 826.078 327.916 845.29C417.578 856.792 510.306 859.261 601.578 852.577C678.449 847.398 734.236 830.776 788.266 813.431C852.398 792.834 906.867 769.407 976.49 745.618C1132.76 692.44 1285.18 676.902 1359.86 639.683C1475.28 626.253 1578.28 628.3 1683.05 627.216C1746.63 639.924 1802.31 650.162 1852.49 646.247C2055.22 720.565 2106.17 748.629 2372.91 780.488C2477.24 792.894 2599.57 793.015 2702.36 792.533C2720.59 792.533 2737.72 792.533 2753.54 792.533C2939.57 789.341 3047.3 778.742 3230.58 775.309C3378.39 772.539 3473.16 799.399 3592.31 817.466C3636.68 824.026 3681.66 829.253 3727.06 833.124C3946.69 852.758 4029.27 849.867 4171.16 827.885C4284.05 810.42 4419.45 782.837 4612.18 743.149C4765.92 711.651 4968.64 667.687 5229.24 626.072" stroke="#FE6B00" stroke-miterlimit="10"/>
<path d="M-1057.64 394.025C-879.378 426.568 -709.518 471.586 -552.263 527.965C-537.438 533.385 -522.173 538.324 -507.129 543.322C-230.062 635.888 -199.643 674.311 -14.3829 737.607C112.565 780.969 179.443 817.586 323.412 837.159C413.617 848.775 506.976 851.082 598.721 843.964C677.13 838.363 731.709 820.898 785.409 802.71C847.894 780.909 901.485 756.819 972.755 732.729C1133.2 678.527 1292.32 666.06 1363.26 631.792C1482.19 620.892 1586.41 627.276 1689.53 630.769C1753.77 646.608 1808.57 660.158 1856.78 658.532C2059.61 745.978 2092.66 785.004 2355.67 821.139C2460.55 835.653 2584.31 835.954 2686.88 835.051L2738.27 834.509C2927.16 832.702 3031.15 814.032 3217.29 810.419C3368.51 807.408 3461.85 832.401 3582.21 849.565C3627.06 855.787 3672.53 860.592 3718.38 863.959C3937.47 880.701 4023.23 874.317 4164.46 849.264C4277.46 829.269 4411.98 799.398 4605.37 759.288C4759.11 727.55 4964.14 684.308 5229.34 646.728" stroke="#FE6B00" stroke-miterlimit="10"/>
<path d="M-1064.23 397.821C-887.964 428.71 -719.159 471.176 -561.488 524.293C-546.553 529.472 -531.289 534.049 -516.244 538.687C-235.115 626.253 -202.06 660.461 -19.8747 721.649C109.599 765.312 172.853 802.832 319.018 822.827C409.802 834.46 503.796 836.504 595.975 828.849C675.262 822.827 729.182 804.759 782.113 785.487C843.501 763.385 896.762 738.452 968.801 713.941C1133.53 658.353 1299.13 649.38 1366.45 618.003C1489 609.631 1598.27 610.956 1695.89 628.482C1765.85 641.069 1814.83 664.617 1860.62 664.617C2063.45 765.192 2078.49 815.178 2337.99 856.191C2443.19 872.934 2568.6 873.355 2670.62 872.09C2689.29 872.09 2706.64 871.609 2722.35 871.368C2914.09 868.597 3014.35 846.495 3203.45 840.232C3357.74 835.113 3449.99 860.106 3571.56 876.366C3616.84 882.326 3662.76 886.711 3709.05 889.495C3928.02 903.468 4016.53 893.53 4157.21 865.406C4270.21 842.821 4403.85 810.661 4597.9 770.19C4751.64 738.211 4958.97 695.692 5228.79 661.786" stroke="#FE6B00" stroke-miterlimit="10"/>
<path d="M-1070.27 401.495C-895.93 430.92 -728.147 470.958 -570.055 520.86C-555.011 525.738 -539.636 529.954 -524.701 534.29C-240.058 616.437 -204.038 646.067 -25.3668 705.69C106.413 749.654 166.153 788.077 315.064 808.433C406.32 820.413 500.975 822.459 593.668 814.455C674.053 808.011 727.204 788.86 779.477 769.046C839.656 746.221 892.258 720.445 966.164 695.572C1134.95 638.78 1307.14 633.179 1370.95 604.633C1496.91 598.61 1608.37 605.295 1703.25 626.615C1774.52 642.634 1822.07 668.772 1866.22 671.723C2069.05 785.487 2066.08 846.374 2322.18 892.025C2427.82 910.995 2554.44 911.477 2656.35 910.092L2708.4 909.129C2902.88 905.455 2999.52 879.859 3191.59 871.067C3349.18 863.779 3440.1 889.134 3562.99 904.491C3608.7 910.241 3655.08 914.265 3701.8 916.536C3920.55 927.798 4011.92 914.248 4152.04 883.051C4265.04 857.938 4397.7 823.489 4592.52 782.596C4798.73 737.602 5011.85 702.775 5229.34 678.528" stroke="#FE6B00" stroke-miterlimit="10"/>
<path d="M-1076.64 402.699C-904.186 430.804 -737.424 468.5 -578.949 515.199C-563.794 519.776 -548.42 523.691 -533.485 527.666C-244.998 604.573 -206.123 630.048 -30.8561 687.622C103.559 731.887 159.565 771.214 310.123 791.992C401.958 804.024 497.272 805.786 590.375 797.171C671.639 790.305 724.131 770.311 775.854 749.654C834.716 726.106 886.659 699.547 961.663 674.313C1134.73 616.316 1313.08 614.088 1373.58 588.372C1503.17 585.12 1616.39 596.804 1708.96 621.797C1781.44 641.37 1827.67 670.518 1869.73 675.638C2072.67 802.531 2051.59 874.379 2304.17 924.667C2410.25 945.866 2538.41 946.347 2639.88 944.48C2658.87 944.119 2676.55 943.637 2692.26 943.276C2889.93 938.639 2982.5 909.671 3177.32 898.288C3337.98 888.893 3427.81 914.007 3551.9 928.882C3598.07 934.291 3644.91 937.833 3692.02 939.482C3910.67 948.094 4004.78 930.809 4144.36 896.602C4257.36 868.899 4389.14 832.222 4584.61 790.847C4792.65 745.61 5008.73 712.407 5229.34 691.778" stroke="#FE6B00" stroke-miterlimit="10"/>
<path d="M-1083.01 399.266C-912.413 426.026 -746.662 461.325 -587.846 504.719C-572.691 508.995 -557.207 512.608 -542.272 516.282C-249.831 587.769 -207.662 608.727 -36.3483 664.736C100.593 709.302 152.975 749.593 305.729 770.671C398.072 782.843 493.998 784.442 587.518 775.369C669.77 768.021 721.604 747.244 772.668 725.744C830.322 701.654 881.606 674.131 957.928 648.536C1135.17 589.335 1320.32 590.359 1376.99 567.594C1510.08 566.871 1624.84 583.854 1715.44 612.521C1788.8 635.768 1834.04 667.687 1874.13 675.034C2077.07 815.117 2037.75 897.866 2287.03 952.731C2393.34 976.218 2523.14 976.82 2624.28 974.532C2643.39 974.11 2661.18 973.568 2676.88 973.147C2877.08 967.606 2966.03 935.085 3163.7 921.173C3327.54 909.61 3416.28 934.784 3541.36 948.936C3588.04 954.025 3635.36 957.146 3682.91 958.271C3901.44 964.294 3998.19 943.215 4137.22 905.996C4250.22 875.884 4381.23 836.738 4577.36 795.002C4786.91 749.307 5005.69 717.543 5229.01 700.389" stroke="#FE6B00" stroke-miterlimit="10"/>
<path d="M-1089.26 395.834C-920.538 421.358 -755.832 454.287 -596.738 494.301C-581.474 498.276 -565.989 501.468 -551.054 504.84C-254.551 571.087 -210.624 587.649 -41.8365 641.851C97.5203 686.659 146.389 727.913 301.229 749.413C394.112 761.761 490.712 763.177 584.665 753.568C667.906 745.679 719.08 724.239 769.596 701.835C826.041 676.842 876.557 648.717 954.197 622.76C1135.72 562.536 1327.57 566.631 1380.39 546.757C1501.62 547.548 1619.98 567.109 1721.81 603.187C1795.94 630.168 1840.41 664.797 1878.41 674.433C2081.46 827.645 2023.81 921.354 2269.91 980.796C2376.43 1006.63 2507.88 1007.11 2608.58 1004.58C2628.02 1004.1 2645.81 1003.5 2661.62 1002.96C2864.45 996.334 2950.11 960.801 3150.63 944.059C3317.44 930.388 3405.3 955.562 3531.58 968.992C3575.51 973.629 3621.85 974.352 3674.35 977.002C3892 988.023 3992.26 955.622 4130.74 915.332C4243.74 882.449 4373.88 841.255 4570.67 799.098C4781.94 752.949 5003.55 722.565 5229.56 708.761" stroke="#FE6B00" stroke-miterlimit="10"/>
<path d="M-1095.63 392.4C-928.697 416.72 -764.982 447.265 -605.635 483.821C-590.26 487.434 -574.776 490.385 -559.731 493.396C-259.494 553.621 -212.163 566.569 -47.3287 618.965C94.6637 664.073 139.359 706.23 296.836 728.152C390.414 740.661 487.826 741.894 582.358 731.766C666.477 723.334 716.993 701.172 766.959 677.925C821.867 652.209 871.943 623.301 950.901 596.983C1136.71 535.313 1335.26 542.781 1384.24 525.978C1508.7 529.558 1628.44 553.304 1728.29 594.213C1802.86 624.867 1846.78 662.266 1882.69 674.131C2085.85 840.471 2009.75 945.142 2252.66 1009.22C2359.51 1037.35 2492.5 1037.77 2593.09 1034.94C2612.64 1034.39 2630.65 1033.67 2646.35 1033.13C2852.04 1025.48 2933.96 986.275 3137.45 967.244C3307.56 951.405 3393.76 976.76 3521.81 989.347C3569.62 992.995 3617.75 995.247 3666 996.092C3883.98 1003.86 3986.44 968.328 4124.48 925.027C4237.37 889.554 4366.74 846.132 4563.75 803.554C4776.59 757.047 5000.88 728.184 5229.23 717.914" stroke="#FE6B00" stroke-miterlimit="10"/>
<path d="M-1102 388.968C-936.777 412.145 -774.003 440.293 -614.419 473.282C-599.045 476.595 -583.56 479.305 -568.516 481.894C-264.325 536.819 -214.138 545.371 -52.3791 596.321C91.6998 641.369 132.771 684.55 292.334 706.834C386.306 719.521 484.246 720.591 579.064 709.965C664.172 700.992 714.138 678.106 763.336 654.017C817.366 627.638 866.454 597.887 946.839 571.208C1136.71 508.333 1342.18 519.294 1387.2 504.96C1515.26 511.192 1636.67 539.003 1734.77 584.577C1809.56 619.026 1853.04 659.075 1886.98 673.168C2090.14 852.698 1995.58 968.691 2235.53 1036.99C2342.6 1067.46 2477.13 1067.82 2577.28 1064.69C2597.05 1064.09 2615.17 1063.3 2630.87 1062.64C2839.52 1053.97 2917.6 1011.39 3124.06 989.83C3297.35 971.762 3382.34 997.297 3511.38 1009.1C3559.63 1012.55 3608.22 1014.38 3656.88 1014.58C3875.2 1019.1 3979.85 980.434 4117.34 934.061C4230.34 896.06 4358.94 850.349 4556.61 807.59C4771.17 760.668 4998.25 733.267 5228.9 726.467" stroke="#FE6B00" stroke-miterlimit="10"/>
<path d="M-1108.15 385.534C-920.039 411.732 -751.252 438.411 -623.206 462.863C-607.612 465.874 -592.128 468.162 -577.193 470.571C-268.939 519.715 -216.007 524.292 -58.2012 572.953C88.8428 618.483 126.729 662.628 288.049 685.333C382.537 698.175 481.113 699.06 576.317 687.922C662.413 678.347 711.83 654.859 760.369 629.866C813.081 602.765 861.51 572.231 943.213 545.19C1137.37 481.111 1349.53 495.384 1390.71 484.182C1522.29 493.132 1645.17 524.96 1741.36 575.001C1816.25 613.244 1864.24 653.594 1891.48 672.324C2144.05 846.554 1981.42 992.177 2218.51 1064.81C2325.69 1097.69 2462.08 1097.93 2561.8 1094.5C2581.78 1093.84 2599.9 1092.93 2615.72 1092.21C2826.89 1082.51 2901.24 1036.56 3110.77 1012.53C3287.24 992.238 3371.03 1017.89 3501.38 1028.85C3549.97 1032.81 3599.13 1034.24 3648.21 1033.13C3866.63 1029.04 3973.7 992.539 4110.75 943.215C4223.64 902.563 4351.25 854.624 4550.02 811.262C4766.41 763.95 4996.36 737.995 5229.23 734.596" stroke="#FE6B00" stroke-miterlimit="10"/>
<path d="M-1114.63 382.102C-924.429 407.517 -756.739 431.607 -632.208 452.384C-616.504 455.034 -601.02 457.021 -586.085 459.129C-273.548 502.491 -218.091 503.154 -63.7988 550.249C85.8807 596.02 120.034 641.249 283.44 664.315C378.517 677.325 477.809 678.026 573.465 666.362C660.44 656.124 709.198 632.034 757.078 606.138C808.691 578.314 855.912 546.997 939.373 519.595C1137.7 454.251 1355.91 471.897 1394.12 463.526C1545.01 475.571 1663.61 518.692 1747.73 565.908C1822.52 608.065 1869.85 651.607 1895.65 671.903C2139.99 863.839 1967.03 1016.09 2201.16 1093.11C2308.45 1128.35 2446.71 1128.47 2545.98 1124.73C2566.19 1123.95 2584.53 1123.05 2600.23 1122.26C2814.27 1111.48 2884.99 1062.04 3097.37 1035.6C3276.92 1013.14 3359.5 1038.97 3491.06 1049.09C3540.15 1052.74 3589.77 1053.73 3639.21 1052.04C3857.74 1045.6 3967.34 1005.13 4103.95 952.731C4216.73 909.49 4343.57 859.322 4543.21 815.539C4697.94 781.633 4922.85 744.835 5229.35 743.269" stroke="#FE6B00" stroke-miterlimit="10"/>
<path d="M-1121 378.67C-928.826 403.482 -762.234 424.682 -641.107 441.966C-625.294 444.194 -609.809 445.881 -594.874 447.989C-278.713 485.147 -220.071 481.955 -69.2937 527.365C81.484 572.774 113.441 619.569 279.044 642.996C374.621 656.228 474.574 656.765 570.606 644.562C658.459 633.601 706.778 609.029 753.999 582.29C804.405 553.803 851.296 521.643 935.635 493.88C1138.25 427.633 1363.04 448.29 1397.52 442.809C1552.03 457.384 1670.75 505.563 1754.21 556.634C1828.77 602.284 1875 649.32 1899.93 671.061C2134.83 880.342 1952.53 1039.64 2184.03 1120.94C2291.32 1158.64 2431.33 1158.58 2530.39 1154.54C2550.7 1153.7 2569.15 1152.68 2585.3 1151.83C2802.07 1139.79 2869.17 1087.27 3084.41 1058.25C3267.14 1033.61 3348.63 1059.63 3481.4 1068.91C3530.98 1072.27 3581.06 1072.83 3630.86 1070.59C3849.5 1061.74 3961.4 1017.29 4097.68 961.886C4210.36 916.055 4336.43 863.659 4536.95 819.454C4691.9 785.307 4918.89 749.172 5230 751.762" stroke="#FE6B00" stroke-miterlimit="10"/>
<path d="M-1127.26 375.236C-933.216 399.326 -767.723 417.754 -650 431.606C-634.076 433.473 -618.592 434.918 -603.657 436.364C-283.653 467.741 -222.046 460.755 -74.7823 504.538C80.1685 550.55 106.744 597.886 274.543 621.735C370.662 635.198 471.329 635.55 567.753 622.759C656.484 611.015 704.364 585.962 750.926 558.439C800.124 529.17 846.247 496.287 932.013 468.102C1138.69 400.349 1371.83 415.827 1400.93 422.03C1551.16 453.889 1677.78 492.313 1760.69 547.358C1834.92 596.682 1880.72 646.97 1904.33 670.758C2128.9 896.902 1937.93 1063.78 2166.9 1149.36C2274.19 1189.47 2416.07 1189.17 2514.68 1184.9C2535.33 1183.99 2553.78 1182.91 2569.59 1182.01C2789.23 1169.12 2852.48 1112.99 3070.68 1081.43C3256.49 1054.57 3336.77 1080.83 3470.86 1089.26C3520.95 1092.33 3571.49 1092.47 3621.63 1089.68C3840.39 1078.48 3954.71 1030 4090.44 971.581C4203.11 923.401 4328.41 868.476 4529.7 823.85C4684.76 789.461 4914.06 754.109 5229.67 760.674" stroke="#FE6B00" stroke-miterlimit="10"/>
<path d="M-1133.63 371.802C-937.61 395.471 -773.325 410.647 -658.896 421.006C-642.863 422.451 -627.379 423.656 -612.334 424.8C-288.596 450.215 -223.914 439.555 -80.2743 481.592C77.8611 527.965 99.8243 576.145 270.149 600.235C366.825 613.87 468.184 614.036 565.006 600.716C654.397 588.13 701.947 562.715 747.74 534.469C795.84 504.357 841.194 470.812 928.278 442.326C1139.24 373.368 1377.32 399.446 1404.33 401.192C1569.06 411.972 1684.69 479.002 1766.73 538.023C1822.21 579.196 1869.62 623.466 1908.17 670.095C2122.31 912.68 1922.88 1087.57 2149.76 1177.43C2256.95 1219.95 2400.8 1219.59 2499.09 1214.95C2519.85 1213.98 2538.51 1212.78 2554 1211.82C2776.27 1197.66 2835.9 1138.22 3057.18 1104.32C3245.95 1075.17 3325.24 1101.85 3460.53 1109.31C3511.14 1112.09 3562.14 1111.78 3612.63 1108.41C3831.6 1094.86 3948.01 1042.16 4083.52 980.915C4195.97 929.784 4320.5 872.992 4522.78 828.004C4678.06 793.375 4909.34 758.686 5229.67 769.285" stroke="#FE6B00" stroke-miterlimit="10"/>
<path d="M-1140 368.37C-942.331 391.015 -779.034 403.421 -667.79 410.527C-299.686 434.015 -232.259 416.55 -85.7639 458.707C74.5679 504.9 93.5661 554.525 265.648 579.157C362.866 593.021 464.934 593.021 562.152 579.157C746.424 551.453 751.475 473.041 924.546 416.55C1139.68 346.328 1384.24 377.223 1407.74 380.415C1720.93 422.572 1866.99 611.136 1912.89 669.494C2116.38 927.978 1908.5 1111.36 2132.52 1205.49C2262.55 1260.12 2449.67 1247.65 2538.84 1241.63C2763.86 1226.57 2819.86 1163.7 3044 1127.2C3296.58 1086.01 3352.25 1145.27 3604.06 1127.2C4005.77 1098.11 4070.23 932.073 4515.54 832.1C4670.93 797.23 4904.4 763.263 5229.34 777.898" stroke="#FE6B00" stroke-miterlimit="10"/>
<path d="M-1134.07 375.899C-939.914 398.544 -779.363 412.034 -668.119 419.502C-309.789 444.314 -239.836 427.933 -94.2194 470.151C63.1473 515.921 84.1221 564.101 251.921 588.914C347.107 602.705 447.025 603.408 542.825 590.961C724.68 567.414 731.709 490.928 902.143 436.606C1112.66 369.033 1349.86 397.158 1377.32 399.628C1634.18 422.453 1775.84 561.271 1845.57 635.347C1859.85 650.463 1870.17 663.472 1878.52 672.867C2087.17 917.56 1890.16 1093.78 2110.89 1182.67C2242.67 1235.61 2431.33 1222.3 2524.24 1216.58C2609.38 1211.45 2691.9 1197.34 2767.26 1175.02C2844.13 1153.88 2916.06 1130.03 3034.34 1114.19C3070.58 1109.38 3102.86 1106.73 3131.85 1104.44C3307.56 1090.53 3375.32 1124.79 3587.04 1104.14C3668.95 1096.25 3747.82 1080.79 3820.29 1058.43C4016.97 998.201 4139.97 889.796 4444.49 810.661C4462.35 806.004 4481.02 801.467 4500.49 797.05C4657.31 761.277 4894.29 725.684 5224.18 739.355" stroke="#FE6B00" stroke-miterlimit="10"/>
<path d="M-1128.14 383.426C-937.938 406.071 -779.692 420.103 -668.339 428.414C-320.002 454.491 -247.852 439.315 -102.675 481.653C51.8363 526.46 74.6781 574.218 237.755 598.609C330.986 612.363 428.832 613.808 523.278 602.825C702.388 583.131 711.942 509.115 879.631 456.599C1085.65 392.099 1316.59 412.876 1346.68 418.838C1584.32 465.512 1738.5 570.906 1810.32 640.706C1824.93 654.919 1835.03 667.386 1843.27 676.178C2056.75 907.381 1871.38 1076.01 2088.6 1159.84C2221.48 1211.03 2412.23 1196.94 2508.87 1191.46C2594.67 1186.63 2678.3 1173.69 2756.06 1153.22C2834.14 1134.13 2907.17 1113.47 3024.01 1101.24C3060.36 1097.39 3092.87 1095.94 3121.86 1093.66C3297.02 1079.74 3361.81 1106.78 3569.25 1081.01C3650.22 1070.78 3727.74 1053.62 3798.99 1030.18C3988.31 969.954 4117.45 857.756 4428.12 775.971C4446.24 771.273 4465.13 766.576 4484.79 761.998C4642.92 725.322 4883.42 688.103 5218.36 700.75" stroke="#FE6B00" stroke-miterlimit="10"/>
<path d="M-1122.21 390.955C-935.961 413.54 -780.131 428.415 -668.887 437.63C-330.434 464.791 -255.869 450.999 -111.35 493.337C40.1961 537.422 65.0146 584.277 224.138 608.547C315.365 622.182 411.056 624.242 503.95 614.57C679.656 598.61 692.285 527.063 857.229 476.595C1058.74 414.925 1282.33 430.704 1316.26 437.931C1504.96 479.407 1665.38 552.121 1775.18 645.947C1790.12 659.256 1800.11 671.181 1808.13 679.432C2026.22 896.662 1852.71 1058.37 2066.09 1137.14C2200.5 1186.64 2393.01 1171.65 2493.38 1166.53C2579.88 1161.9 2664.6 1150.1 2744.64 1131.54C2824.15 1114.49 2898.38 1097.09 3013.47 1088.36C3050.15 1085.59 3082.77 1085.29 3111.76 1083C3286.69 1069.03 3347.97 1089.02 3551.02 1058C3630.89 1045.37 3707.07 1026.55 3777.24 1002.12C3959.21 941.469 4095.05 826.079 4411.21 741.403C4429.44 736.585 4448.55 731.787 4468.54 727.009C4627.99 689.489 4872.11 650.644 5211.99 662.328" stroke="#FE6B00" stroke-miterlimit="10"/>
<path d="M-1116.28 398.423C-933.984 421.068 -780.46 436.726 -668.997 446.603C-340.427 474.848 -263.336 462.442 -119.916 504.84C28.5559 548.262 55.7903 594.093 210.082 618.304C299.395 632.008 393.078 634.885 484.623 626.735C657.803 614.69 672.628 545.432 834.937 496.951C1031.95 437.629 1245.54 461.238 1285.84 457.203C1518.1 482.918 1664.16 589.697 1740.15 651.367C1755.42 663.713 1765.19 675.035 1773.76 682.804C1996.68 886.243 1835.03 1040.6 2044.45 1114.19C2180.62 1162.01 2374.56 1146.17 2478.78 1141.29C2566.04 1136.89 2651.88 1126.24 2734.1 1109.62C2815.14 1094.62 2890.26 1080.53 3003.92 1075.23C3040.82 1073.48 3073.54 1074.39 3102.75 1072.1C3277.47 1058.12 3335.23 1070.83 3534.55 1034.82C3619 1019.52 3688.29 997.599 3757.26 973.75C3932.08 912.983 4073.97 793.738 4396.17 706.593C4414.47 701.655 4433.8 696.736 4454.15 691.838C4615.03 653.354 4862.67 612.883 5207.49 623.603" stroke="#FE6B00" stroke-miterlimit="10"/>
<path d="M-1110.46 405.95C-932.447 428.535 -780.901 444.976 -668.888 455.214C-350.421 484.483 -271.353 473.763 -127.933 515.921C17.4636 558.801 46.3453 603.548 196.794 627.638C284.028 641.335 375.513 644.904 465.404 638.117C635.29 629.203 653.08 563.016 812.643 516.583C1005.04 460.634 1210.84 482.135 1255.64 476.293C1480.99 499.66 1626.93 599.031 1705.23 656.606C1720.82 668.048 1730.49 678.829 1739.27 686.056C1966.92 875.583 1817.46 1022.65 2022.71 1091.25C2160.64 1137.38 2356.11 1120.64 2463.95 1116.12C2573.77 1111.54 2651.19 1099.08 2723.45 1087.75C2806.03 1074.81 2882.9 1056.02 2994.14 1062.1C3027.03 1064.04 3060.23 1063.74 3092.98 1061.2C3267.59 1047.22 3321.62 1052.94 3517.09 1011.57C3598.9 994.286 3666.99 970.497 3736.72 945.323C3904.41 884.616 4052.33 761.698 4380.46 671.722C4398.99 666.663 4418.53 661.604 4439.11 656.545C4601.3 617.219 4852.45 575.122 5202.33 584.818" stroke="#FE6B00" stroke-miterlimit="10"/>
<path d="M-1104.53 413.539C-930.034 436.123 -781.233 453.347 -669.66 464.248C-360.746 494.36 -279.153 485.206 -136.392 527.484C6.36931 569.761 37.0081 613.364 182.954 637.514C310.121 658.533 416.094 654.016 446.513 650.101C608.712 629.022 633.75 581.144 790.677 536.758C978.463 483.64 1176.68 503.213 1225.66 495.625C1443.97 516.703 1589.7 608.426 1670.63 662.026C1686.45 672.565 1696 682.803 1704.9 689.548C1937.27 865.163 1800.33 1004.76 2001.4 1068.6C2141.31 1113.05 2337.99 1095.4 2449.67 1091.19C2561.35 1086.97 2639.65 1075.65 2713.23 1066.07C2797.24 1055.17 2876.75 1038.85 2984.81 1049.27C3017.42 1052.58 3050.78 1053 3083.64 1050.53C3258.03 1036.56 3308.43 1035.3 3499.95 988.624C3579.24 969.352 3645.79 943.636 3715.63 917.378C3876.29 857.153 4030.37 730.079 4364.32 637.273C4382.99 632.094 4402.75 626.915 4423.62 621.735C4587.25 581.505 4841.91 537.782 5196.73 546.454" stroke="#FE6B00" stroke-miterlimit="10"/>
<path d="M-1098.6 420.887C-928.057 443.652 -781.672 461.719 -669.989 473.041C-370.959 503.876 -286.95 496.469 -144.847 538.746C-5.38085 580.301 27.564 623.061 169.227 647.151C292.88 668.169 395.888 665.58 426.746 661.846C585.76 642.453 613.434 599.091 767.835 556.754C951.009 506.406 1141.21 524.172 1194.8 514.596C1406.2 533.326 1551.37 616.978 1635.05 667.145C1647.41 675.307 1658.99 683.81 1669.76 692.62C1906.63 854.324 1782.54 986.396 1978.78 1045.54C2120.77 1088.24 2318.66 1069.63 2434.08 1065.83C2545.1 1062.1 2626.69 1051.8 2701.7 1044.03C2787.25 1035.18 2869.39 1021.75 2974.15 1036.02C3006.59 1040.73 3040.38 1041.92 3073.65 1039.51C3247.93 1025.48 3294.6 1017.35 3482.27 965.257C3559.14 943.998 3623.94 916.475 3694.33 888.893C3848.07 828.668 4008.18 697.98 4347.95 602.344C4366.77 597.044 4386.76 591.744 4407.91 586.444C4572.64 545.311 4831.04 499.962 5190.9 507.67" stroke="#FE6B00" stroke-miterlimit="10"/>
<path d="M-1092.67 428.294C-926.08 450.938 -782.111 469.608 -670.208 481.894C-381.172 513.572 -294.746 507.851 -152.754 550.129C-16.2524 591.021 18.6692 632.697 155.94 656.666C276.737 677.685 376.231 677.022 407.968 673.469C563.907 655.943 594.655 616.918 745.982 576.567C924.544 529.05 1107.39 544.949 1164.93 533.747C1369.3 550.129 1513.71 626.313 1600.57 672.264C1613.04 679.751 1624.73 687.613 1635.6 695.812C1877.2 843.543 1765.96 967.968 1957.37 1022.53C2101.44 1063.54 2300.43 1044.09 2419.58 1040.6C2531.59 1037.23 2615.06 1028.01 2691.38 1022.05C2782.1 1015.21 2874.13 1015.47 2964.71 1022.83C3003.37 1025.54 3035.87 1030.84 3064.53 1028.85C3238.59 1014.76 3281.53 999.887 3465.36 942.312C3539.38 919.125 3602.96 889.615 3674.01 860.828C3821.06 801.085 3986.88 666.242 4332.91 567.774C4351.8 562.414 4372.12 556.934 4393.64 551.454C4559.9 509.296 4821.92 462.441 5186.4 469.187" stroke="#FE6B00" stroke-miterlimit="10"/>
<path d="M-1086.19 438.653C-923.551 461.238 -781.888 480.811 -669.986 493.639C-391.272 525.979 -302.431 521.944 -161.756 564.402C-28.1096 604.633 8.67884 645.284 141.666 669.193C258.511 690.212 355.369 691.416 387.984 688.104C541.068 672.626 574.123 637.696 723.143 599.393C896.982 554.706 1072.25 568.739 1133.97 555.79C1331.64 569.823 1474.4 638.057 1564.89 680.576C1577.47 687.377 1589.31 694.576 1600.36 702.136C1845.79 835.895 1748.5 952.611 1934.86 1002.66C2081.24 1041.98 2281.11 1021.69 2404.1 1018.5C2516.88 1015.55 2602.32 1007.42 2679.96 1003.26C2768.47 998.502 2850.94 1002.54 2954.5 1012.84C2993.7 1016.75 3026.1 1023.07 3054.65 1020.78C3228.49 1006.69 3267.81 985.072 3447.79 921.896C3519.18 896.782 3581.22 865.405 3652.82 835.293C3793.28 776.152 3964.81 637.154 4316.22 535.796C4335.33 530.255 4355.76 524.714 4377.61 519.053C4545.19 476.173 4810.39 427.572 5180.26 433.293" stroke="#FE6B00" stroke-miterlimit="10"/>
<path d="M-1080.81 464.729C-922.126 487.313 -782.879 507.489 -670.866 521.16C-401.487 554.103 -310.23 552.055 -170.214 594.212C-39.5327 633.78 -0.767586 673.468 127.937 697.257C241.267 718.275 335.05 721.346 368.654 718.275C518.883 704.965 554.354 674.01 700.739 637.755C869.856 595.597 1037.55 608.124 1103.54 593.309C1293.97 605.354 1424.76 674.973 1529.85 704.303C1543.8 712.493 1555.88 719.118 1565.54 723.816C1815.15 843.542 1731.8 952.669 1912.89 998.199C2061.69 1035.72 2262.44 1014.58 2389.16 1011.75C2502.71 1009.22 2590.13 1002.17 2669.09 999.705C2759.13 996.995 2843.14 1005 2944.18 1018.07C2983.93 1023.19 3016.21 1030.54 3044.66 1028.19C3218.39 1014.1 3253.97 986.034 3430 917.016C3498.86 890.096 3559.37 856.792 3631.52 825.294C3765.49 766.816 3942.62 623.542 4299.86 519.353C4319.11 513.772 4339.79 508.071 4361.9 502.249C4530.91 458.767 4799.96 408.54 5174.43 413.538" stroke="#FE6B00" stroke-miterlimit="10"/>
<path d="M-1075.21 488.219C-920.146 510.803 -783.315 531.641 -671.193 546.035C-411.587 579.52 -317.474 579.52 -178.667 621.918C-50.9503 660.763 -10.2085 699.487 114.104 723.216C223.92 744.174 314.628 748.871 349.33 746.282C496.813 735.261 534.59 708.22 678.779 674.012C843.503 634.866 1003.29 645.285 1073.57 628.723C1256.96 638.118 1386.43 701.414 1495.15 725.805C1506.55 732.038 1518.61 737.89 1531.28 743.331C1784.74 849.146 1715.66 950.082 1891.37 991.577C2042.7 1027.29 2244.1 1005.31 2374.56 1002.9C2488.99 1000.73 2578.38 994.769 2658.55 994.227C2750.13 993.564 2835.79 1005.67 2934.62 1021.39C2974.82 1027.77 3007.1 1036.08 3035.55 1033.43C3208.95 1019.28 3241.01 984.531 3413.09 909.912C3478.98 881.185 3538.39 846.014 3610.76 813.131C3738.26 755.436 3920.88 607.765 4283.94 500.685C4303.26 494.663 4324.24 489.122 4346.64 483.22C4516.97 438.473 4789.2 386.861 5169.06 390.414" stroke="#FE6B00" stroke-miterlimit="10"/>
<path d="M-1069.06 511.705C-918.06 534.289 -783.535 555.789 -671.523 571.026C-421.691 604.873 -325.821 606.86 -187.123 649.318C-62.3719 687.501 -19.6533 725.262 100.376 748.87C206.898 769.828 294.311 771.575 330.002 774.044C474.41 784.162 514.822 742.125 655.936 710.025C815.719 673.89 968.144 682.261 1042.71 663.893C1219.18 670.939 1347.12 727.671 1460.01 747.123C1471.52 752.744 1483.7 757.935 1496.47 762.661C1753.66 854.504 1699.08 947.31 1869.85 984.71C2023.59 1018.56 2225.76 995.851 2360.07 993.744C2475.37 991.997 2566.63 987.179 2648.11 988.384C2741.24 989.769 2828.32 1006.09 2925.07 1024.52C2965.81 1032.17 2997.88 1041.38 3026.32 1039.09C3199.61 1024.88 3228.16 983.626 3396.07 903.226C3459.88 872.692 3517.42 835.593 3590.56 801.326C3711.35 744.473 3899.8 592.346 4268.67 482.135C4288.22 476.353 4309.34 470.331 4332.04 464.067C4503.68 418.417 4779.54 364.937 5164.33 367.708" stroke="#FE6B00" stroke-miterlimit="10"/>
<path d="M-1063.13 535.253C-916.083 558.078 -784.084 579.939 -671.852 595.959C-431.794 630.167 -333.618 634.262 -195.579 676.781C-73.7925 714.24 -29.0973 750.797 86.5392 774.887C189.657 795.845 274.105 798.977 310.564 802.168C451.349 814.213 494.946 776.392 633.534 746.34C788.595 712.675 933.552 719.54 1012.29 699.365C1181.74 704.123 1308.79 754.169 1424.54 768.744C1436.16 773.767 1448.46 778.297 1461.33 782.294C1722.03 860.225 1682.61 944.901 1847 978.205C2003.71 1010.06 2206.21 986.637 2344.14 984.95C2460.33 983.565 2553.56 979.891 2636.36 982.903C2731.02 986.335 2819.54 1006.99 2914.2 1027.65C2955.38 1036.68 2987.45 1046.8 3015.78 1044.45C3188.85 1030.24 3214.11 982.541 3378.17 896.3C3439.45 863.959 3495.46 824.994 3569.03 789.28C3684.12 733.332 3877.4 576.687 4252.09 464.067C4271.78 458.085 4293.12 452.062 4316.11 446C4489.18 399.506 4768.45 344.401 5158.29 346.208" stroke="#FE6B00" stroke-miterlimit="10"/>
<path d="M-1057.2 558.74C-914.436 581.265 -784.523 604.029 -672.181 620.892C-441.567 655.341 -341.414 661.725 -204.034 704.183C-85.1032 740.98 -38.5411 776.874 72.8126 800.543C172.416 821.501 253.9 826.018 291.237 829.932C428.288 844.205 475.179 810.239 611.132 782.294C761.47 751.399 898.851 756.458 981.872 734.476C1144.4 736.885 1269.59 780.367 1389.51 790.003C1401.27 794.407 1413.68 798.255 1426.63 801.506C1690.19 865.766 1666.47 941.649 1825.04 971.28C1983.62 1000.91 2187.43 977.302 2329.21 975.796C2446.16 974.773 2541.37 972.183 2625.71 977.001C2721.8 982.481 2811.74 1007.11 2904.42 1030.6C2946.05 1041.02 2978.11 1051.92 3006.33 1049.63C3179.19 1035.36 3201.26 981.337 3360.6 889.133C3419.57 855.046 3474.04 814.214 3548.06 776.995C3657 722.13 3855.54 560.848 4235.95 445.096C4255.71 439.074 4277.35 433.052 4300.63 426.487C4474.8 378.849 4757.68 322.118 5152.47 323.202" stroke="#FE6B00" stroke-miterlimit="10"/>
<path d="M-1051.27 582.168C-912.129 604.692 -784.852 628.059 -672.401 645.705C-451.889 680.395 -349.211 689.007 -212.49 731.525C-96.5241 767.66 -47.7657 802.53 58.9757 825.897C155.285 846.856 233.803 852.758 271.909 857.395C405.336 873.595 455.303 843.844 588.839 817.948C734.346 789.762 864.149 793.135 951.233 769.346C1106.73 769.346 1230.5 806.264 1354.15 810.962C1366.14 814.745 1378.7 817.949 1391.71 820.537C1659.22 871.247 1650.43 938.216 1803.08 964.233C1965.5 991.877 2168.66 967.365 2314.27 966.522C2432 965.799 2529.18 964.354 2614.62 970.979C2712.25 978.507 2803.39 1007.78 2894.21 1033.37C2936.27 1045.42 2968.23 1056.92 2996.45 1054.57C3169.19 1040.36 3188.08 979.952 3343.03 881.786C3399.59 845.952 3452.85 803.494 3526.86 764.528C3629.87 710.748 3833.47 544.829 4219.69 426.186C4239.68 420.043 4261.46 413.7 4285.03 407.155C4460.74 358.975 4747.14 300.557 5146.98 300.377" stroke="#FE6B00" stroke-miterlimit="10"/>
<path d="M-1045.34 605.775C-910.152 628.299 -785.291 652.209 -672.73 670.758C-461.882 705.568 -356.898 716.528 -220.946 759.168C-107.945 794.519 -57.4292 828.486 45.249 851.733C112.467 866.188 181.836 877.431 252.582 885.338C382.385 903.406 435.426 877.87 566.437 854.082C707.112 828.607 829.996 829.992 921.034 804.637C1069.51 802.409 1191.95 832.642 1319.34 832.461C1331.52 835.605 1344.2 838.126 1357.22 839.989C1627.15 877.087 1634.62 934.963 1781.11 957.427C1946.61 982.782 2149.99 959.354 2299.23 957.427C2417.83 955.921 2516.88 956.825 2603.75 965.196C2702.58 974.772 2795.27 1008.5 2884.22 1036.38C2926.61 1049.63 2958.67 1062.16 2986.79 1059.81C3159.31 1045.54 3175.23 978.867 3325.68 874.678C3379.82 837.158 3431.43 792.713 3506 752.302C3602.97 699.666 3811.62 529.049 4203.66 407.516C4223.76 401.493 4245.72 394.808 4269.55 388.123C4446.68 338.92 4736.6 278.936 5141.38 277.792" stroke="#FE6B00" stroke-miterlimit="10"/>
<path d="M-1039.41 629.324C-907.626 651.848 -785.621 676.239 -673.059 695.571C-471.876 730.381 -364.695 743.751 -229.291 786.45C-119.475 821.079 -66.8732 854.143 31.4123 877.269C96.9189 892.112 164.396 904.192 233.255 913.404C359.653 933.218 415.55 911.958 544.035 890.398C679.877 867.513 794.855 867.452 890.615 840.11C1032.17 835.473 1153.19 859.141 1284.2 854.022C1296.6 856.505 1309.39 858.36 1322.41 859.563C1595.42 883.352 1618.92 931.833 1759.15 950.864C1927.83 973.749 2131.21 950.02 2284.29 948.575C2403.77 947.491 2504.69 949.478 2592.88 959.656C2693.47 971.28 2786.92 1009.46 2874.34 1039.63C2916.83 1054.33 2949.12 1067.64 2977.12 1065.29C3149.54 1050.96 3162.49 978.025 3308.22 867.814C3360.16 828.547 3410.35 782.355 3485.02 740.378C3576.39 688.946 3789.87 513.572 4187.85 389.088C4208.05 382.764 4230.35 376.139 4254.51 369.274C4433.07 319.227 4726.72 257.617 5136.22 255.449" stroke="#FE6B00" stroke-miterlimit="10"/>
<path d="M-1033.59 652.872C-906.2 675.336 -785.951 700.269 -673.389 720.685C-482.199 755.555 -372.383 771.334 -237.748 814.093C-130.677 848.06 -76.3182 880.34 17.6845 903.166C81.4771 918.12 146.996 930.754 213.816 940.987C336.92 962.487 395.672 945.624 521.302 926.171C652.423 905.996 759.823 904.25 859.866 875.041C994.391 868.115 1113.98 885.158 1248.83 875.041C1261.45 876.884 1274.36 878.074 1287.38 878.594C1563.46 889.193 1602.66 927.858 1736.86 943.697C1908.72 964.053 2112.1 940.083 2269.03 939.24C2389.28 938.517 2492.17 941.589 2581.67 953.574C2683.8 967.245 2778.25 1009.88 2864.01 1042.34C2906.73 1058.55 2939.13 1072.46 2967.13 1070.23C3139.32 1055.9 3149.64 976.64 3290.54 860.406C3340.18 819.453 3389.37 771.575 3463.72 727.912C3549.81 677.745 3767.69 497.854 4171.59 370.177C4191.91 363.733 4214.42 356.988 4238.91 350.002C4418.79 299.112 4715.73 235.816 5130.51 232.865" stroke="#FE6B00" stroke-miterlimit="10"/>
<path d="M-1027.66 676.42C-904.223 698.944 -786.06 724.238 -673.718 745.739C-491.643 780.488 -380.18 798.857 -246.204 841.616C-141.988 874.86 -85.7621 906.117 3.84793 928.942C65.9533 944.236 129.604 957.568 194.489 968.871C314.299 992.057 375.686 979.531 499.229 962.246C625.518 944.661 725.451 941.288 829.776 910.333C957.383 901.058 1075.54 911.477 1214.13 896.541C1227.02 897.485 1240.01 897.987 1253.01 898.047C1531.94 904.852 1587.29 924.244 1715.22 937.012C1890.27 954.477 2093.76 929.424 2254.31 930.267C2375.11 930.929 2480.31 934.121 2571.13 947.913C2674.8 963.631 2770.01 1010.79 2854.35 1045.48C2897.29 1063.18 2929.9 1077.88 2957.8 1075.59C3129.88 1061.26 3137.56 975.797 3273.41 853.541C3320.85 810.841 3368.62 761.277 3443.18 715.807C3523.35 666.905 3746.39 481.955 4155.56 351.628C4176.13 345.044 4198.79 338.198 4223.54 331.092C4404.74 279.178 4705.3 214.316 5125.02 210.221" stroke="#FE6B00" stroke-miterlimit="10"/>
<path d="M-1021.73 699.907C-902.246 722.371 -786.39 748.087 -674.048 770.611C-501.416 805.18 -387.976 826.138 -254.659 869.018C-153.409 901.539 -95.3159 931.892 -9.87886 954.597C69.1888 975.676 132.882 987.721 175.162 996.754C291.786 1021.51 355.809 1013.38 476.827 998.38C586.296 984.596 694.029 966.953 799.357 945.563C914.884 923.28 1035.46 901.118 1178.99 917.92C1192.02 918.915 1205.26 918.752 1218.2 917.438C1500.86 902.141 1571.48 920.45 1693.26 930.266C1871.6 944.6 2074.98 919.908 2239.38 921.233C2361.38 922.196 2468.12 926.593 2560.26 942.131C2665.35 960.198 2761.44 1011.63 2844.36 1048.55C2887.4 1067.76 2920.35 1083.18 2948.24 1080.83C3119.99 1066.43 3125.27 974.712 3255.73 846.434C3300.97 801.988 3347.64 750.857 3421.88 703.641C3496.12 656.425 3724.64 466.597 4139.2 332.898C4159.84 326.333 4183.13 319.287 4207.83 312C4390.46 259.243 4694.43 192.755 5119.31 187.636" stroke="#FE6B00" stroke-miterlimit="10"/>
<path d="M-1015.8 723.455C-900.272 745.918 -786.612 771.634 -674.27 795.724C-511.193 830.112 -395.666 853.72 -263.118 896.661C-164.284 928.459 -104.763 957.909 -23.7187 980.493C51.9447 1001.63 113.442 1014.82 155.831 1024.64C269.381 1050.96 335.82 1047.16 454.421 1034.45C570.936 1021.99 648.247 1006.09 768.935 980.855C877.653 958.09 993.4 953.693 1143.96 939.3C1157.79 937.975 1171.08 938.095 1183.49 936.891C1469.67 908.706 1555.66 916.535 1671.3 923.521C1852.82 934.421 2056.31 910.452 2224.33 912.199C2347.21 913.524 2455.93 919.064 2549.39 936.289C2656.02 956.163 2752.77 1012.29 2834.36 1051.5C2877.52 1072.22 2911.23 1088.36 2938.58 1086.01C3110.11 1071.61 3113.07 973.568 3238.59 839.086C3281.75 792.894 3327.43 740.317 3401.23 691.174C3470.74 644.922 3703.23 450.577 4123.49 313.987C4144.36 307.302 4167.42 300.135 4192.79 292.668C4376.73 239.068 4684.32 170.954 5114.04 164.811" stroke="#FE6B00" stroke-miterlimit="10"/>
<path d="M-1009.32 746.944C-897.747 769.407 -786.173 795.605 -674.051 820.478C-520.308 854.625 -402.914 880.703 -271.025 923.944C-175.595 955.02 -113.658 983.566 -36.8968 1006.09C35.2525 1027.17 94.114 1041.44 137.052 1052.28C247.637 1080.17 316.492 1080.71 432.678 1070.35C544.251 1060.35 614.863 1044.15 739.065 1016.15C841.304 992.901 954.964 982.001 1109.37 960.741C1123.09 958.874 1136.71 958.091 1149.34 956.345C1439.25 915.332 1540.72 923.643 1649.88 916.777C1835.83 905.577 2022.92 901.071 2209.94 903.287C2333.71 904.913 2444.29 911.598 2539.39 930.749C2647.56 952.671 2744.86 1013.32 2824.92 1054.75C2868.07 1076.97 2901.79 1093.78 2929.46 1091.49C3100.88 1077.04 3101.43 972.726 3221.79 832.523C3262.86 784.644 3307.78 730.623 3380.91 679.492C3445.16 634.625 3681.92 435.281 4108.01 295.861C4128.98 289.055 4151.93 281.768 4177.96 274.18C4363.33 219.616 4674.33 149.876 5109.09 142.83" stroke="#FE6B00" stroke-miterlimit="10"/>
<path d="M-1003.94 763.866C-896.318 786.329 -786.831 812.708 -674.489 838.845C-529.971 872.631 -410.93 901.72 -279.151 944.781C-186.576 974.893 -122.772 1002.84 -50.2936 1025.18C18.3416 1046.32 74.6773 1061.68 117.945 1073.36C225.894 1102.75 296.836 1107.63 410.605 1099.62C517.347 1092.09 581.589 1075.89 708.976 1044.33C804.955 1020.54 916.968 1003.38 1074.66 975.074C1088.39 972.604 1102.01 970.978 1114.97 968.63C1408.83 914.909 1525.35 909.85 1628.25 902.985C1816.35 890.291 2005.86 884.998 2195.34 887.146C2319.87 889.133 2432.43 896.962 2528.41 917.92C2638.23 942.01 2735.96 1006.99 2815.25 1050.41C2858.3 1074.14 2892.12 1091.73 2920.13 1089.38C3091.33 1074.87 3089.79 964.293 3204.66 818.008C3243.65 768.322 3288.12 712.976 3360.27 659.858C3419.46 616.315 3660.4 412.033 4092.31 269.722C4113.39 262.796 4137 255.389 4162.92 247.68C4349.6 192.213 4664.23 120.847 5103.93 112.777" stroke="#FE6B00" stroke-miterlimit="10"/>
<path d="M-998.337 772.96C-894.671 795.424 -787.051 821.803 -675.587 849.325C-540.294 882.75 -419.056 914.489 -288.814 957.73C-199.094 987.3 -133.534 1014.22 -65.3382 1036.38C-0.107318 1057.58 53.7026 1073.9 97.4095 1086.79C202.723 1117.69 275.751 1126.84 386.995 1121.24C488.904 1116.12 547.217 1100.34 677.349 1065.11C767.179 1041.02 877.874 1017.41 1038.32 982C1052.15 978.989 1065.88 976.52 1078.95 973.569C1377.21 907.021 1507.89 888.411 1605.08 881.726C1794.29 868.778 1999.76 860.467 2179.09 863.659C2304.5 865.887 2418.93 874.921 2516.33 897.686C2627.58 923.703 2725.75 993.262 2804.05 1039.27C2847.1 1064.57 2881.69 1082.76 2909.25 1080.41C3080.35 1065.95 3076.62 948.997 3186.1 796.749C3223 745.317 3267.26 688.706 3338.09 633.48C3392.34 591.323 3637.34 382.102 4075.06 236.9C4096.37 229.914 4120.09 222.326 4146.34 214.437C4334.45 158.127 4652.48 85.1342 5097.23 75.9198" stroke="#FE6B00" stroke-miterlimit="10"/>
<path d="M-992.188 781.633C-892.365 804.036 -786.502 830.415 -675.588 859.443C-545.921 892.763 -419.532 929.792 -296.941 970.377C-210.077 999.285 -143.198 1025.36 -78.7363 1047.28C-17.1294 1068.66 34.2647 1085.89 78.4108 1099.8C181.199 1132.26 256.203 1145.63 364.921 1142.5C462.109 1139.73 514.821 1124.73 647.259 1085.53C731.378 1060.65 840.865 1031.02 1003.61 988.565C1017.45 984.951 1031.29 981.639 1044.57 978.146C1347.12 898.77 1490.98 863.418 1583.44 860.105C1776.61 853.36 1981.31 836.015 2164.48 839.81C2290.77 842.279 2407.06 852.637 2505.79 877.149C2618.57 905.214 2717.08 979.531 2794.39 1027.71C2837.21 1054.51 2872.36 1073.42 2899.92 1071.13C3070.79 1056.56 3064.64 933.278 3168.97 775.068C3205.81 715.803 3255.67 659.217 3317.44 606.559C3366.86 565.667 3615.81 351.568 4059.25 203.476C4080.66 196.369 4104.6 188.66 4131.18 180.65C4320.61 123.437 4642.27 48.8186 5091.96 38.761" stroke="#FE6B00" stroke-miterlimit="10"/>
<path d="M-986.257 789.944C-751.004 844.952 -523.438 909.365 -305.397 982.663C45.3566 1100.64 141.226 1164.36 342.519 1163.34C489.124 1162.55 523.716 1128.35 968.472 994.708C1302.97 894.193 1470.22 844.146 1561.48 838.124C1889.39 817.105 2247.83 791.088 2494.92 856.191C2673.04 903.106 2813.39 1067.46 2890.26 1060.95C3118.13 1041.56 3028.19 817.045 3296.58 579.157C3341.27 539.529 3594.07 320.613 4043.33 169.629C4217.72 111.031 4567.81 13.587 5086.58 1" stroke="#FE6B00" stroke-miterlimit="10"/>
</g>
</svg>
