<svg width="1536" height="1248" viewBox="0 0 1536 1248" fill="none" xmlns="http://www.w3.org/2000/svg">
<g opacity="0.5">
<path d="M-4310.28 115.427C-4086.65 176.925 -3888.53 263.03 -3728.25 368.371C-3492.04 525.557 -3504.89 621.857 -3278.01 711.652C-3057.49 798.857 -2754.84 822.887 -2509.29 789.944C-2174.24 744.956 -2159.09 622.519 -1729.6 428.596C-1477.02 314.65 -1003.38 100.732 -444.746 121.449C-162.518 131.929 118.062 201.428 378.876 265.989C698.551 345.124 744.454 385.776 916.975 404.506C1121.89 426.789 1438.71 410.95 1894.34 211.787" stroke="#FE6B00" stroke-miterlimit="10"/>
<path d="M-4316.54 137.951C-4115.03 191.978 -3933.37 265.88 -3780.63 355.964C-3766.03 364.697 -3751.42 373.671 -3736.71 382.885C-3498.07 535.133 -3507.52 627.096 -3283.49 714.663C-3185.84 752.98 -3075.27 780.269 -2958.22 794.942C-2874.37 805.41 -2788.38 809.783 -2702.46 807.951C-2638.2 806.561 -2574.43 801.207 -2512.36 791.991C-2443.2 782.241 -2377.45 766.287 -2317.77 744.775C-2207.95 705.027 -2131.08 651.366 -2012.81 584.035C-1923.72 533.362 -1826.79 487.016 -1723.11 445.519C-1668.21 423.235 -1604.07 396.375 -1529.95 368.853C-1331.62 295.017 -1077.83 214.798 -773.313 187.095C-669.983 177.425 -564.991 174.193 -460.337 177.459C-444.304 177.94 -428.381 178.663 -412.677 179.506C-257.177 187.757 -109.035 209.619 42.2922 238.647C155.513 260.087 262.583 286.827 368.776 311.94C413.251 322.66 453.005 332.417 488.915 341.571C705.802 397.038 762.138 426.789 910.28 439.797C1022.84 449.674 1168.46 447.928 1353.28 412.756C1504.82 383.969 1684.26 332.116 1894.34 246.356" stroke="#FE6B00" stroke-miterlimit="10"/>
<path d="M-4322.35 160.595C-4122.93 212.581 -3942.39 284.003 -3789.53 371.382C-3774.88 379.813 -3760.24 388.446 -3745.6 397.278C-3504 544.648 -3509.82 632.155 -3288.87 717.674C-3190.99 756.492 -3080.07 784.308 -2962.5 799.519C-2878.16 810.055 -2791.6 814.269 -2705.2 812.046C-2640.85 810.247 -2577.13 804.18 -2515.44 793.978C-2446.61 783.069 -2381.22 766.478 -2321.5 744.775C-2207.29 703.822 -2126.25 651.908 -2009.29 589.034C-1919.79 541.312 -1821.74 498.659 -1716.63 461.719C-1661.73 441.965 -1599.02 417.755 -1525.66 393.785C-1330.19 329.887 -1091.89 262.857 -790.444 240.995C-686.298 233.126 -581.05 230.546 -476.04 233.287C-459.787 233.768 -443.754 234.371 -427.94 235.154C-269.805 242.742 -125.397 261.472 29.0051 287.308C145.301 306.821 251.383 333.079 358.454 357.831C402.929 368.069 443.122 377.404 479.911 386.137C697.457 437.99 755.769 465.332 903.362 474.968C1015.81 482.316 1160.33 478.281 1346.14 442.688C1497.91 413.539 1679.65 362.649 1894.34 281.045" stroke="#FE6B00" stroke-miterlimit="10"/>
<path d="M-4329.27 182.878C-4131.48 232.895 -3951.68 301.985 -3798.42 386.859C-3783.82 395.05 -3769.1 403.361 -3754.5 411.852C-3509.71 554.284 -3512.46 637.454 -3294.47 720.684C-3191.25 760.071 -3089.56 788.437 -2967.11 804.156C-2882.21 814.779 -2795.01 818.833 -2708.06 816.201C-2643.58 813.978 -2579.91 807.176 -2518.62 795.965C-2450.11 783.906 -2384.98 766.677 -2325.13 744.774C-2206.74 702.617 -2121.64 652.57 -2005.89 594.213C-1915.88 549.417 -1816.63 510.549 -1710.16 478.4C-1654.7 461.176 -1593.86 439.616 -1521.38 419.2C-1327.78 364.636 -1105.95 311.217 -807.576 295.077C-702.61 289.031 -596.989 287.119 -491.524 289.355C-475.162 289.777 -458.58 290.319 -443.205 291.041C-288.048 298.011 -134.475 313.157 15.3875 336.27C134.758 353.796 239.962 379.813 348.351 403.903C392.826 413.779 433.348 422.632 471.125 430.943C689.22 479.123 749.619 503.936 896.553 510.38C1009 515.318 1152.75 508.814 1339.22 472.8C1491.32 443.651 1675.04 393.122 1894.34 315.372" stroke="#FE6B00" stroke-miterlimit="10"/>
<path d="M-4335.64 205.343C-4139.77 253.415 -3960.91 320.084 -3807.32 402.278C-3792.71 410.227 -3777.89 418.177 -3763.39 426.367C-3515.98 564.101 -3514.88 642.393 -3299.97 723.757C-3194.43 763.565 -3096.15 792.714 -2971.51 808.794C-2886.11 819.521 -2798.33 823.396 -2710.91 820.297C-2646.14 817.721 -2582.35 810.201 -2521.37 797.954C-2453.31 784.842 -2388.53 767.098 -2328.53 745.137C-2205.98 701.715 -2116.26 653.716 -2002.16 599.333C-1921.66 561.03 -1826.45 527.545 -1703.35 495.024C-1647.45 480.208 -1587.93 461.238 -1516.66 444.435C-1323.82 398.965 -1119.57 359.518 -824.819 349.099C-719.183 344.826 -613.215 343.56 -507.34 345.305C-490.758 345.666 -474.395 346.148 -458.691 346.75C-303.25 352.34 -148.953 365.153 2.53696 385.053C125.202 400.591 228.868 426.428 338.355 449.674C382.282 459.19 423.902 467.742 462.557 475.511C681.092 520.318 743.577 542.3 890.072 545.492C1002.52 547.961 1145.29 539.108 1332.52 502.732C1484.62 473.162 1670.54 423.537 1894.34 349.762" stroke="#FE6B00" stroke-miterlimit="10"/>
<path d="M-4341.9 227.806C-4147.98 273.966 -3970.12 338.214 -3816.21 417.694C-3801.61 425.343 -3786.78 432.931 -3772.28 440.76C-3521.9 573.255 -3517.4 647.632 -3305.68 726.707C-3197.84 766.998 -3102.95 796.929 -2976.23 813.371C-2890.27 824.19 -2801.83 827.884 -2713.88 824.332C-2649.09 821.383 -2585.47 813.163 -2525.1 799.941C-2457.45 785.721 -2392.95 767.356 -2332.81 745.196C-2205.98 700.63 -2111.53 654.859 -1999.3 604.451C-1916.39 567.353 -1819.09 538.204 -1697.42 511.585C-1640.86 499.178 -1582.66 482.918 -1512.92 469.427C-1319.32 432.69 -1133.84 407.577 -842.167 402.759C-740.806 401.072 -628.684 398.965 -523.151 400.952C-506.349 401.253 -490.206 401.675 -474.172 402.156C-318.69 406.361 -163.981 416.829 -11.2969 433.473C114.443 447.024 217.341 472.68 328.035 495.444C372.511 504.599 413.912 512.488 453.555 519.956C672.529 561.692 737.43 582.168 882.937 580.903C995.389 579.94 1137.27 569.641 1325.17 532.724C1477.37 502.611 1665.6 454.01 1893.91 384.27" stroke="#FE6B00" stroke-miterlimit="10"/>
<path d="M-4348.27 250.21C-4156.27 294.505 -3979.37 356.35 -3825.11 433.112C-3810.5 440.46 -3795.57 447.747 -3781.18 455.215C-3527.73 582.891 -3519.82 652.691 -3311.28 729.719C-3201.46 770.37 -3109.76 801.145 -2980.73 818.008C-2894.37 828.853 -2805.48 832.366 -2717.17 828.427C-2652.18 825.068 -2588.55 816.126 -2528.62 801.928C-2461.52 786.539 -2397.34 767.578 -2336.99 745.317C-2205.98 699.486 -2106.37 655.703 -1996.56 609.51C-1911.12 573.376 -1811.63 548.924 -1691.6 528.147C-1634.16 518.149 -1571.68 512.368 -1509.3 494.963C-1306.91 490.326 -1147.68 446.783 -860.069 457.021C-758.489 460.695 -644.61 455.576 -539.515 457.021C-522.494 457.323 -506.022 457.624 -490.208 458.045C-320.871 462.442 -191.288 467.561 -25.246 482.135C103.568 493.638 205.368 519.173 317.271 541.215C361.197 550.008 403.477 557.476 444.109 564.522C663.192 602.584 730.4 618.725 875.687 615.713C988.248 613.244 1129.25 599.633 1317.81 562.415C1470.23 532.302 1660.43 484.122 1893.46 418.417" stroke="#FE6B00" stroke-miterlimit="10"/>
<path d="M-4354.64 272.673C-4164.58 315.1 -3988.65 374.503 -3834 448.469C-3819.29 455.575 -3804.35 462.501 -3790.07 469.608C-3532.99 592.346 -3521.79 657.689 -3316.44 732.729C-3203.88 773.802 -3116.02 805.36 -2984.9 822.645C-2897.79 833.624 -2808.05 836.938 -2719.04 832.461C-2646.67 829.149 -2587.26 817.224 -2530.81 803.854C-2464.21 787.327 -2400.26 767.766 -2339.62 745.376C-2204.44 698.341 -2099.23 656.846 -1991.94 614.568C-1904.09 579.819 -1801.96 559.764 -1684.46 544.648C-1625.82 537.119 -1564.76 535.373 -1504.25 520.196C-1301.86 528.748 -1161.29 504.839 -876.539 510.922C-774.41 513.15 -659.213 511.825 -554.448 513.09C-537.317 513.09 -520.625 513.511 -504.921 513.813C-332.729 517.366 -206.88 519.173 -37.8726 531.278C93.9069 540.793 194.718 566.148 307.829 587.528C351.756 595.959 394.364 602.945 435.985 609.57C655.617 644.38 724.911 657.75 869.649 651.305C982.211 646.427 1122.23 630.468 1311.55 592.827C1464.08 562.715 1656.48 515.017 1894.13 453.347" stroke="#FE6B00" stroke-miterlimit="10"/>
<path d="M-4360.9 295.077C-4172.87 335.701 -3997.97 392.637 -3842.9 463.707C-3828.18 470.572 -3813.14 477.197 -3798.31 483.882C-3538.6 601.681 -3523.77 662.508 -3321.93 735.501C-3207.06 776.996 -3122.62 809.396 -2989.3 826.982C-2901.77 838.084 -2811.51 841.258 -2722.12 836.377C-2648.76 832.703 -2590.34 819.815 -2534.22 805.662C-2464.93 788.197 -2407.93 767.721 -2343.69 745.438C-2204.22 697.258 -2078.04 668.29 -1988.76 619.628C-1887.62 595.96 -1793.07 550.791 -1677.87 561.21C-1617.91 566.631 -1558.17 558.32 -1499.75 545.432C-1297.25 567.112 -1174.58 553.441 -893.455 564.884C-790.886 569.04 -673.822 568.076 -569.936 568.979C-552.475 568.979 -535.783 568.979 -519.97 569.521C-345.142 572.232 -222.916 570.545 -51.0539 580.061C84.1299 587.468 183.623 612.703 297.832 633.42C341.759 641.49 384.807 648.054 427.306 654.197C646.938 685.815 718.978 695.993 863.166 686.538C975.838 679.13 1114.97 660.822 1304.85 622.76C1457.6 592.286 1651.65 545.432 1894.34 487.796" stroke="#FE6B00" stroke-miterlimit="10"/>
<path d="M-4367.27 317.481C-4181.16 356.386 -4007.25 410.963 -3851.79 479.245C-3837.08 485.809 -3822.03 491.832 -3807.1 498.396C-3543.54 611.257 -3526.3 667.567 -3327.42 738.572C-3210.14 780.428 -3129.2 813.672 -2993.8 831.679C-2905.72 842.832 -2814.85 845.824 -2724.97 840.532C-2650.62 836.497 -2593.19 822.465 -2537.29 807.71C-2469.32 789.643 -2412.98 768.203 -2347.42 745.498C-2203.78 695.993 -2071.01 670.458 -1985.03 624.627C-1880.37 603.548 -1779.89 561.271 -1671.06 577.712C-1611.54 586.685 -1551.47 581.325 -1495.36 570.666C-1292.74 605.476 -1187.87 602.163 -910.474 618.845C-807.467 624.868 -689.524 624.386 -585.418 624.868H-535.232C-357.55 626.675 -238.728 621.676 -64.2304 628.481C74.1381 633.841 172.424 659.015 287.84 679.01C331.767 686.719 375.144 692.801 418.632 698.462C638.264 727.009 712.939 734.055 856.579 721.468C969.25 711.531 1107.51 690.874 1298.04 652.451C1450.9 621.676 1647.59 575.604 1894.45 521.944" stroke="#FE6B00" stroke-miterlimit="10"/>
<path d="M-4373.64 339.824C-4189.68 377.076 -4016.92 429.226 -3861.13 494.541C-3846.3 500.564 -3831.26 506.586 -3816.32 512.609C-3549.91 620.471 -3528.93 672.264 -3333.13 741.463C-3213.43 783.62 -3135.46 817.767 -2998.41 836.136C-2909.84 847.432 -2818.37 850.264 -2728.04 844.507C-2652.6 840.111 -2596.26 825.295 -2540.7 809.577C-2474.04 790.546 -2418.25 768.564 -2351.37 745.498C-2203.45 694.788 -2064.2 672.566 -1982.17 629.625C-1873.89 611.076 -1773.52 604.451 -1665.13 594.153C-1602.97 600.657 -1545.65 604.211 -1491.4 595.839C-1288.79 644.019 -1201.93 650.885 -928.044 672.626C-824.597 680.877 -705.117 681.298 -601.45 680.636C-583.66 680.636 -566.638 680.636 -550.935 680.636C-370.397 679.371 -255.529 673.108 -77.9561 677.323C63.7069 680.636 160.675 705.689 277.409 725.021C321.336 732.308 365.262 738.03 409.189 743.089C628.821 768.564 705.693 772.358 849.113 756.639C961.894 744.233 1099.16 721.227 1290.57 682.382C1443.55 651.366 1641.99 606.017 1893.79 556.332" stroke="#FE6B00" stroke-miterlimit="10"/>
<path d="M-4379.9 362.228C-4197.75 397.805 -4025.85 447.536 -3869.47 509.899C-3854.76 515.922 -3839.6 521.522 -3824.67 527.184C-3554.74 629.987 -3530.69 677.324 -3338.4 744.414C-3216.29 787.053 -3142.38 821.983 -3002.69 840.774C-2913.36 852.203 -2821.03 854.834 -2730.02 848.542C-2653.15 843.785 -2597.69 828.066 -2543.33 811.565C-2477.44 791.751 -2422.53 769.046 -2354.56 745.317C-2202.57 693.404 -2056.63 674.493 -1978.33 634.444C-1866.53 618.484 -1764.62 616.376 -1658.21 610.354C-1595.29 619.99 -1538.84 626.855 -1486.57 620.713C-1283.96 681.841 -1214.99 699.426 -944.736 726.226C-840.85 736.525 -719.942 737.247 -616.605 736.223C-598.595 736.223 -581.574 736.223 -565.761 736.223C-382.587 733.995 -271.233 724.179 -90.8052 725.925C53.9326 727.19 149.802 752.183 267.745 770.792C311.672 777.779 355.598 782.837 401.172 787.716C620.804 810.24 700.751 810.721 843.182 791.871C955.964 776.935 1092.36 751.641 1284.42 712.374C1437.51 681.118 1638.58 636.491 1894.56 590.841" stroke="#FE6B00" stroke-miterlimit="10"/>
<path d="M-4386.27 384.571C-4206.07 418.562 -4035.19 465.895 -3878.37 525.256C-3863.54 531.278 -3848.39 536.217 -3833.45 541.577C-3559.9 639.261 -3532.77 682.141 -3343.89 747.365C-3219.36 790.305 -3148.97 826.078 -3007.08 845.29C-2917.42 856.792 -2824.69 859.261 -2733.42 852.577C-2656.55 847.398 -2600.76 830.776 -2546.73 813.431C-2482.6 792.834 -2428.13 769.407 -2358.51 745.618C-2202.24 692.44 -2049.82 676.902 -1975.14 639.683C-1859.72 626.253 -1756.72 628.3 -1651.95 627.216C-1588.37 639.924 -1532.69 650.162 -1482.51 646.247C-1279.78 720.565 -1228.83 748.629 -962.086 780.488C-857.761 792.894 -735.425 793.015 -632.637 792.533C-614.408 792.533 -597.276 792.533 -581.463 792.533C-395.434 789.341 -287.704 778.742 -104.421 775.309C43.3917 772.539 138.163 799.399 257.314 817.466C301.676 824.026 346.657 829.253 392.058 833.124C611.691 852.758 694.273 849.867 836.155 827.885C949.046 810.42 1084.45 782.837 1277.18 743.149C1430.92 711.651 1633.64 667.687 1894.24 626.072" stroke="#FE6B00" stroke-miterlimit="10"/>
<path d="M-4392.64 394.025C-4214.38 426.568 -4044.52 471.586 -3887.26 527.965C-3872.44 533.385 -3857.17 538.324 -3842.13 543.322C-3565.06 635.888 -3534.64 674.311 -3349.38 737.607C-3222.44 780.969 -3155.56 817.586 -3011.59 837.159C-2921.38 848.775 -2828.02 851.082 -2736.28 843.964C-2657.87 838.363 -2603.29 820.898 -2549.59 802.71C-2487.11 780.909 -2433.52 756.819 -2362.24 732.729C-2201.8 678.527 -2042.68 666.06 -1971.74 631.792C-1852.81 620.892 -1748.59 627.276 -1645.47 630.769C-1581.23 646.608 -1526.43 660.158 -1478.22 658.532C-1275.39 745.978 -1242.34 785.004 -979.328 821.139C-874.454 835.653 -750.691 835.954 -648.123 835.051L-596.729 834.509C-407.845 832.702 -303.849 814.032 -117.71 810.419C33.5069 807.408 126.85 832.401 247.209 849.565C292.061 855.787 337.526 860.592 383.382 863.959C602.465 880.701 688.231 874.317 829.455 849.264C942.456 829.269 1076.98 799.398 1270.37 759.288C1424.11 727.55 1629.14 684.308 1894.34 646.728" stroke="#FE6B00" stroke-miterlimit="10"/>
<path d="M-4399.23 397.821C-4222.96 428.71 -4054.16 471.176 -3896.49 524.293C-3881.55 529.472 -3866.29 534.049 -3851.24 538.687C-3570.11 626.253 -3537.06 660.461 -3354.87 721.649C-3225.4 765.312 -3162.15 802.832 -3015.98 822.827C-2925.2 834.46 -2831.2 836.504 -2739.03 828.849C-2659.74 822.827 -2605.82 804.759 -2552.89 785.487C-2491.5 763.385 -2438.24 738.452 -2366.2 713.941C-2201.47 658.353 -2035.87 649.38 -1968.55 618.003C-1846 609.631 -1736.73 610.956 -1639.11 628.482C-1569.15 641.069 -1520.17 664.617 -1474.38 664.617C-1271.55 765.192 -1256.51 815.178 -997.01 856.191C-891.806 872.934 -766.396 873.355 -664.377 872.09C-645.708 872.09 -628.357 871.609 -612.653 871.368C-420.914 868.597 -320.652 846.495 -131.548 840.232C22.7436 835.113 114.989 860.106 236.556 876.366C281.836 882.326 327.757 886.711 374.046 889.495C593.019 903.468 681.531 893.53 822.206 865.406C935.207 842.821 1068.85 810.661 1262.9 770.19C1416.64 738.211 1623.97 695.692 1893.79 661.786" stroke="#FE6B00" stroke-miterlimit="10"/>
<path d="M-4405.27 401.495C-4230.93 430.92 -4063.15 470.958 -3905.06 520.86C-3890.01 525.738 -3874.64 529.954 -3859.7 534.29C-3575.06 616.437 -3539.04 646.067 -3360.37 705.69C-3228.59 749.654 -3168.85 788.077 -3019.94 808.433C-2928.68 820.413 -2834.02 822.459 -2741.33 814.455C-2660.95 808.011 -2607.8 788.86 -2555.52 769.046C-2495.34 746.221 -2442.74 720.445 -2368.84 695.572C-2200.05 638.78 -2027.86 633.179 -1964.05 604.633C-1838.09 598.61 -1726.63 605.295 -1631.75 626.615C-1560.48 642.634 -1512.93 668.772 -1468.78 671.723C-1265.95 785.487 -1268.92 846.374 -1012.82 892.025C-907.181 910.995 -780.563 911.477 -678.654 910.092L-626.601 909.129C-432.116 905.455 -335.478 879.859 -143.409 871.067C14.1772 863.779 105.105 889.134 227.989 904.491C273.702 910.241 320.08 914.265 366.797 916.536C585.551 927.798 676.918 914.248 817.044 883.051C930.045 857.938 1062.7 823.489 1257.52 782.596C1463.73 737.602 1676.85 702.775 1894.34 678.528" stroke="#FE6B00" stroke-miterlimit="10"/>
<path d="M-4411.64 402.699C-4239.19 430.804 -4072.42 468.5 -3913.95 515.199C-3898.79 519.776 -3883.42 523.691 -3868.48 527.666C-3580 604.573 -3541.12 630.048 -3365.86 687.622C-3231.44 731.887 -3175.43 771.214 -3024.88 791.992C-2933.04 804.024 -2837.73 805.786 -2744.63 797.171C-2663.36 790.305 -2610.87 770.311 -2559.15 749.654C-2500.28 726.106 -2448.34 699.547 -2373.34 674.313C-2200.27 616.316 -2021.92 614.088 -1961.42 588.372C-1831.83 585.12 -1718.61 596.804 -1626.04 621.797C-1553.56 641.37 -1507.33 670.518 -1465.27 675.638C-1262.33 802.531 -1283.41 874.379 -1030.83 924.667C-924.75 945.866 -796.595 946.347 -695.125 944.48C-676.127 944.119 -658.446 943.637 -642.742 943.276C-445.073 938.639 -352.498 909.671 -157.684 898.288C2.97719 888.893 92.8071 914.007 216.899 928.882C263.072 934.291 309.906 937.833 357.025 939.482C575.669 948.094 669.781 930.809 809.358 896.602C922.359 868.899 1054.14 832.222 1249.61 790.847C1457.65 745.61 1673.73 712.407 1894.34 691.778" stroke="#FE6B00" stroke-miterlimit="10"/>
<path d="M-4418.01 399.266C-4247.41 426.026 -4081.66 461.325 -3922.85 504.719C-3907.69 508.995 -3892.21 512.608 -3877.27 516.282C-3584.83 587.769 -3542.66 608.727 -3371.35 664.736C-3234.41 709.302 -3182.02 749.593 -3029.27 770.671C-2936.93 782.843 -2841 784.442 -2747.48 775.369C-2665.23 768.021 -2613.4 747.244 -2562.33 725.744C-2504.68 701.654 -2453.39 674.131 -2377.07 648.536C-2199.83 589.335 -2014.68 590.359 -1958.01 567.594C-1824.92 566.871 -1710.16 583.854 -1619.56 612.521C-1546.2 635.768 -1500.96 667.687 -1460.87 675.034C-1257.93 815.117 -1297.25 897.866 -1047.97 952.731C-941.663 976.218 -811.86 976.82 -710.72 974.532C-691.612 974.11 -673.821 973.568 -658.117 973.147C-457.922 967.606 -368.971 935.085 -171.302 921.173C-7.45627 909.61 81.2754 934.784 206.356 948.936C253.037 954.025 300.359 957.146 347.909 958.271C566.444 964.294 663.192 943.215 802.219 905.996C915.22 875.884 1046.23 836.738 1242.36 795.002C1451.91 749.307 1670.69 717.543 1894.01 700.389" stroke="#FE6B00" stroke-miterlimit="10"/>
<path d="M-4424.26 395.834C-4255.54 421.358 -4090.83 454.287 -3931.74 494.301C-3916.47 498.276 -3900.99 501.468 -3886.05 504.84C-3589.55 571.087 -3545.62 587.649 -3376.84 641.851C-3237.48 686.659 -3188.61 727.913 -3033.77 749.413C-2940.89 761.761 -2844.29 763.177 -2750.33 753.568C-2667.09 745.679 -2615.92 724.239 -2565.4 701.835C-2508.96 676.842 -2458.44 648.717 -2380.8 622.76C-2199.28 562.536 -2007.43 566.631 -1954.61 546.757C-1833.38 547.548 -1715.02 567.109 -1613.19 603.187C-1539.06 630.168 -1494.59 664.797 -1456.59 674.433C-1253.54 827.645 -1311.19 921.354 -1065.09 980.796C-958.573 1006.63 -827.122 1007.11 -726.421 1004.58C-706.983 1004.1 -689.193 1003.5 -673.38 1002.96C-470.549 996.334 -384.892 960.801 -184.368 944.059C-17.557 930.388 70.296 955.562 196.585 968.992C240.511 973.629 286.854 974.352 339.346 977.002C557.002 988.023 657.264 955.622 795.742 915.332C908.743 882.449 1038.88 841.255 1235.67 799.098C1446.94 752.949 1668.55 722.565 1894.56 708.761" stroke="#FE6B00" stroke-miterlimit="10"/>
<path d="M-4430.63 392.4C-4263.7 416.72 -4099.98 447.265 -3940.63 483.821C-3925.26 487.434 -3909.78 490.385 -3894.73 493.396C-3594.49 553.621 -3547.16 566.569 -3382.33 618.965C-3240.34 664.073 -3195.64 706.23 -3038.16 728.152C-2944.59 740.661 -2847.17 741.894 -2752.64 731.766C-2668.52 723.334 -2618.01 701.172 -2568.04 677.925C-2513.13 652.209 -2463.06 623.301 -2384.1 596.983C-2198.29 535.313 -1999.74 542.781 -1950.76 525.978C-1826.3 529.558 -1706.56 553.304 -1606.71 594.213C-1532.14 624.867 -1488.22 662.266 -1452.31 674.131C-1249.15 840.471 -1325.25 945.142 -1082.34 1009.22C-975.486 1037.35 -842.498 1037.77 -741.906 1034.94C-722.359 1034.39 -704.349 1033.67 -688.646 1033.13C-482.96 1025.48 -401.037 986.275 -197.548 967.244C-27.4421 951.405 58.7636 976.76 186.809 989.347C234.62 992.995 282.751 995.247 330.998 996.092C548.984 1003.86 651.442 968.328 789.481 925.027C902.372 889.554 1031.74 846.132 1228.75 803.554C1441.59 757.047 1665.88 728.184 1894.23 717.914" stroke="#FE6B00" stroke-miterlimit="10"/>
<path d="M-4437 388.968C-4271.78 412.145 -4109 440.293 -3949.42 473.282C-3934.04 476.595 -3918.56 479.305 -3903.52 481.894C-3599.32 536.819 -3549.14 545.371 -3387.38 596.321C-3243.3 641.369 -3202.23 684.55 -3042.67 706.834C-2948.69 719.521 -2850.75 720.591 -2755.94 709.965C-2670.83 700.992 -2620.86 678.106 -2571.66 654.017C-2517.63 627.638 -2468.55 597.887 -2388.16 571.208C-2198.29 508.333 -1992.82 519.294 -1947.8 504.96C-1819.74 511.192 -1698.33 539.003 -1600.23 584.577C-1525.44 619.026 -1481.96 659.075 -1448.02 673.168C-1244.86 852.698 -1339.42 968.691 -1099.47 1036.99C-992.396 1067.46 -857.871 1067.82 -757.719 1064.69C-737.952 1064.09 -719.832 1063.3 -704.129 1062.64C-495.478 1053.97 -417.398 1011.39 -210.944 989.83C-37.6537 971.762 47.3439 997.297 176.378 1009.1C224.632 1012.55 273.224 1014.38 321.885 1014.58C540.199 1019.1 644.854 980.434 782.344 934.061C895.345 896.06 1023.94 850.349 1221.61 807.59C1436.17 760.668 1663.25 733.267 1893.9 726.467" stroke="#FE6B00" stroke-miterlimit="10"/>
<path d="M-4443.15 385.534C-4255.04 411.732 -4086.25 438.411 -3958.21 462.863C-3942.61 465.874 -3927.13 468.162 -3912.19 470.571C-3603.94 519.715 -3551.01 524.292 -3393.2 572.953C-3246.16 618.483 -3208.27 662.628 -3046.95 685.333C-2952.46 698.175 -2853.89 699.06 -2758.68 687.922C-2672.59 678.347 -2623.17 654.859 -2574.63 629.866C-2521.92 602.765 -2473.49 572.231 -2391.79 545.19C-2197.63 481.111 -1985.47 495.384 -1944.29 484.182C-1812.71 493.132 -1689.83 524.96 -1593.64 575.001C-1518.75 613.244 -1470.76 653.594 -1443.52 672.324C-1190.95 846.554 -1353.58 992.177 -1116.49 1064.81C-1009.31 1097.69 -872.918 1097.93 -773.205 1094.5C-753.218 1093.84 -735.098 1092.93 -719.285 1092.21C-508.108 1082.51 -433.763 1036.56 -224.233 1012.53C-47.7584 992.238 36.0315 1017.89 166.383 1028.85C214.971 1032.81 264.13 1034.24 313.208 1033.13C531.632 1029.04 638.703 992.539 775.754 943.215C888.645 902.563 1016.25 854.624 1215.02 811.262C1431.41 763.95 1661.36 737.995 1894.23 734.596" stroke="#FE6B00" stroke-miterlimit="10"/>
<path d="M-4449.63 382.102C-4259.43 407.517 -4091.74 431.607 -3967.21 452.384C-3951.5 455.034 -3936.02 457.021 -3921.09 459.129C-3608.55 502.491 -3553.09 503.154 -3398.8 550.249C-3249.12 596.02 -3214.97 641.249 -3051.56 664.315C-2956.48 677.325 -2857.19 678.026 -2761.54 666.362C-2674.56 656.124 -2625.8 632.034 -2577.92 606.138C-2526.31 578.314 -2479.09 546.997 -2395.63 519.595C-2197.3 454.251 -1979.09 471.897 -1940.88 463.526C-1789.99 475.571 -1671.39 518.692 -1587.27 565.908C-1512.49 608.065 -1465.15 651.607 -1439.35 671.903C-1195.01 863.839 -1367.97 1016.09 -1133.84 1093.11C-1026.55 1128.35 -888.289 1128.47 -789.016 1124.73C-768.809 1123.95 -750.47 1123.05 -734.766 1122.26C-520.734 1111.48 -450.013 1062.04 -237.628 1035.6C-58.0785 1013.14 24.5034 1038.97 156.063 1049.09C205.148 1052.74 254.768 1053.73 304.205 1052.04C522.74 1045.6 632.336 1005.13 768.948 952.731C881.729 909.49 1008.57 859.322 1208.21 815.539C1362.94 781.633 1587.85 744.835 1894.34 743.269" stroke="#FE6B00" stroke-miterlimit="10"/>
<path d="M-4456 378.67C-4263.83 403.482 -4097.23 424.682 -3976.11 441.966C-3960.29 444.194 -3944.81 445.881 -3929.87 447.989C-3613.71 485.147 -3555.07 481.955 -3404.29 527.365C-3253.52 572.774 -3221.56 619.569 -3055.96 642.996C-2960.38 656.228 -2860.43 656.765 -2764.39 644.562C-2676.54 633.601 -2628.22 609.029 -2581 582.29C-2530.6 553.803 -2483.7 521.643 -2399.36 493.88C-2196.75 427.633 -1971.96 448.29 -1937.48 442.809C-1782.97 457.384 -1664.25 505.563 -1580.79 556.634C-1506.23 602.284 -1460 649.32 -1435.07 671.061C-1200.17 880.342 -1382.47 1039.64 -1150.97 1120.94C-1043.68 1158.64 -903.667 1158.58 -804.613 1154.54C-784.297 1153.7 -765.848 1152.68 -749.705 1151.83C-532.927 1139.79 -465.829 1087.27 -250.59 1058.25C-67.8553 1033.61 13.6284 1059.63 146.396 1068.91C195.98 1072.27 246.062 1072.83 295.856 1070.59C514.501 1061.74 626.403 1017.29 762.685 961.886C875.357 916.055 1001.43 863.659 1201.95 819.454C1356.9 785.307 1583.89 749.172 1895 751.762" stroke="#FE6B00" stroke-miterlimit="10"/>
<path d="M-4462.26 375.236C-4268.22 399.326 -4102.72 417.754 -3985 431.606C-3969.08 433.473 -3953.59 434.918 -3938.66 436.364C-3618.65 467.741 -3557.05 460.755 -3409.78 504.538C-3254.83 550.55 -3228.26 597.886 -3060.46 621.735C-2964.34 635.198 -2863.67 635.55 -2767.25 622.759C-2678.52 611.015 -2630.64 585.962 -2584.07 558.439C-2534.88 529.17 -2488.75 496.287 -2402.99 468.102C-2196.31 400.349 -1963.17 415.827 -1934.07 422.03C-1783.84 453.889 -1657.22 492.313 -1574.31 547.358C-1500.08 596.682 -1454.28 646.97 -1430.67 670.758C-1206.1 896.902 -1397.07 1063.78 -1168.1 1149.36C-1060.81 1189.47 -918.93 1189.17 -820.315 1184.9C-799.67 1183.99 -781.221 1182.91 -765.407 1182.01C-545.774 1169.12 -482.52 1112.99 -264.315 1081.43C-78.5062 1054.57 1.76946 1080.83 135.855 1089.26C185.945 1092.33 236.488 1092.47 286.633 1089.68C505.387 1078.48 619.706 1030 755.439 971.581C868.11 923.401 993.41 868.476 1194.7 823.85C1349.76 789.461 1579.06 754.109 1894.67 760.674" stroke="#FE6B00" stroke-miterlimit="10"/>
<path d="M-4468.63 371.802C-4272.61 395.471 -4108.32 410.647 -3993.9 421.006C-3977.86 422.451 -3962.38 423.656 -3947.33 424.8C-3623.6 450.215 -3558.91 439.555 -3415.27 481.592C-3257.14 527.965 -3235.18 576.145 -3064.85 600.235C-2968.17 613.87 -2866.82 614.036 -2769.99 600.716C-2680.6 588.13 -2633.05 562.715 -2587.26 534.469C-2539.16 504.357 -2493.81 470.812 -2406.72 442.326C-2195.76 373.368 -1957.68 399.446 -1930.67 401.192C-1765.94 411.972 -1650.31 479.002 -1568.27 538.023C-1512.79 579.196 -1465.38 623.466 -1426.83 670.095C-1212.69 912.68 -1412.12 1087.57 -1185.24 1177.43C-1078.05 1219.95 -934.195 1219.59 -835.91 1214.95C-815.155 1213.98 -796.486 1212.78 -781.002 1211.82C-558.734 1197.66 -499.104 1138.22 -277.824 1104.32C-89.0498 1075.17 -9.76234 1101.85 125.531 1109.31C176.136 1112.09 227.144 1111.78 277.627 1108.41C496.6 1094.86 613.006 1042.16 748.519 980.915C860.971 929.784 985.503 872.992 1187.78 828.004C1343.06 793.375 1574.34 758.686 1894.67 769.285" stroke="#FE6B00" stroke-miterlimit="10"/>
<path d="M-4475 368.37C-4277.33 391.015 -4114.03 403.421 -4002.79 410.527C-3634.69 434.015 -3567.26 416.55 -3420.76 458.707C-3260.43 504.9 -3241.43 554.525 -3069.35 579.157C-2972.13 593.021 -2870.07 593.021 -2772.85 579.157C-2588.58 551.453 -2583.52 473.041 -2410.45 416.55C-2195.32 346.328 -1950.76 377.223 -1927.26 380.415C-1614.07 422.572 -1468.01 611.136 -1422.11 669.494C-1218.62 927.978 -1426.5 1111.36 -1202.48 1205.49C-1072.45 1260.12 -885.326 1247.65 -796.155 1241.63C-571.142 1226.57 -515.135 1163.7 -291 1127.2C-38.4229 1086.01 17.254 1145.27 269.063 1127.2C670.771 1098.11 735.233 932.073 1180.54 832.1C1335.93 797.23 1569.4 763.263 1894.34 777.898" stroke="#FE6B00" stroke-miterlimit="10"/>
<path d="M-4469.07 375.899C-4274.91 398.544 -4114.36 412.034 -4003.12 419.502C-3644.79 444.314 -3574.84 427.933 -3429.22 470.151C-3271.85 515.921 -3250.88 564.101 -3083.08 588.914C-2987.89 602.705 -2887.97 603.408 -2792.18 590.961C-2610.32 567.414 -2603.29 490.928 -2432.86 436.606C-2222.34 369.033 -1985.14 397.158 -1957.68 399.628C-1700.82 422.453 -1559.16 561.271 -1489.43 635.347C-1475.15 650.463 -1464.83 663.472 -1456.48 672.867C-1247.83 917.56 -1444.84 1093.78 -1224.11 1182.67C-1092.33 1235.61 -903.665 1222.3 -810.761 1216.58C-725.624 1211.45 -643.099 1197.34 -567.737 1175.02C-490.866 1153.88 -418.936 1130.03 -300.664 1114.19C-264.425 1109.38 -232.139 1106.73 -203.147 1104.44C-27.4412 1090.53 40.3153 1124.79 252.041 1104.14C333.948 1096.25 412.82 1080.79 485.291 1058.43C681.972 998.201 804.966 889.796 1109.49 810.661C1127.35 806.004 1146.02 801.467 1165.49 797.05C1322.31 761.277 1559.29 725.684 1889.18 739.355" stroke="#FE6B00" stroke-miterlimit="10"/>
<path d="M-4463.14 383.426C-4272.94 406.071 -4114.69 420.103 -4003.34 428.414C-3655 454.491 -3582.85 439.315 -3437.68 481.653C-3283.16 526.46 -3260.32 574.218 -3097.24 598.609C-3004.01 612.363 -2906.17 613.808 -2811.72 602.825C-2632.61 583.131 -2623.06 509.115 -2455.37 456.599C-2249.35 392.099 -2018.41 412.876 -1988.32 418.838C-1750.68 465.512 -1596.5 570.906 -1524.68 640.706C-1510.07 654.919 -1499.97 667.386 -1491.73 676.178C-1278.25 907.381 -1463.62 1076.01 -1246.4 1159.84C-1113.52 1211.03 -922.773 1196.94 -826.135 1191.46C-740.33 1186.63 -656.697 1173.69 -578.938 1153.22C-500.859 1134.13 -427.831 1113.47 -310.987 1101.24C-274.637 1097.39 -242.132 1095.94 -213.14 1093.66C-37.9833 1079.74 26.8082 1106.78 234.251 1081.01C315.216 1070.78 392.742 1053.62 463.987 1030.18C653.31 969.954 782.454 857.756 1093.12 775.971C1111.24 771.273 1130.13 766.576 1149.79 761.998C1307.92 725.322 1548.42 688.103 1883.36 700.75" stroke="#FE6B00" stroke-miterlimit="10"/>
<path d="M-4457.21 390.955C-4270.96 413.54 -4115.13 428.415 -4003.89 437.63C-3665.43 464.791 -3590.87 450.999 -3446.35 493.337C-3294.8 537.422 -3269.99 584.277 -3110.86 608.547C-3019.64 622.182 -2923.94 624.242 -2831.05 614.57C-2655.34 598.61 -2642.71 527.063 -2477.77 476.595C-2276.26 414.925 -2052.67 430.704 -2018.74 437.931C-1830.04 479.407 -1669.62 552.121 -1559.82 645.947C-1544.88 659.256 -1534.89 671.181 -1526.87 679.432C-1308.78 896.662 -1482.29 1058.37 -1268.91 1137.14C-1134.5 1186.64 -941.99 1171.65 -841.618 1166.53C-755.121 1161.9 -670.404 1150.1 -590.359 1131.54C-510.852 1114.49 -436.616 1097.09 -321.528 1088.36C-284.85 1085.59 -252.235 1085.29 -223.243 1083C-48.3057 1069.03 12.9718 1089.02 216.022 1058C295.892 1045.37 372.067 1026.55 442.244 1002.12C624.209 941.469 760.052 826.079 1076.21 741.403C1094.44 736.585 1113.55 731.787 1133.54 727.009C1292.99 689.489 1537.11 650.644 1876.99 662.328" stroke="#FE6B00" stroke-miterlimit="10"/>
<path d="M-4451.28 398.423C-4268.98 421.068 -4115.46 436.726 -4004 446.603C-3675.43 474.848 -3598.34 462.442 -3454.92 504.84C-3306.44 548.262 -3279.21 594.093 -3124.92 618.304C-3035.6 632.008 -2941.92 634.885 -2850.38 626.735C-2677.2 614.69 -2662.37 545.432 -2500.06 496.951C-2303.05 437.629 -2089.46 461.238 -2049.16 457.203C-1816.9 482.918 -1670.84 589.697 -1594.85 651.367C-1579.58 663.713 -1569.81 675.035 -1561.24 682.804C-1338.32 886.243 -1499.97 1040.6 -1290.55 1114.19C-1154.37 1162.01 -960.439 1146.17 -856.224 1141.29C-768.96 1136.89 -683.123 1126.24 -600.901 1109.62C-519.856 1094.62 -444.742 1080.53 -331.082 1075.23C-294.184 1073.48 -261.459 1074.39 -232.248 1072.1C-57.5299 1058.12 0.233192 1070.83 199.55 1034.82C283.998 1019.52 353.292 997.599 422.257 973.75C597.085 912.983 738.967 793.738 1061.17 706.593C1079.47 701.655 1098.8 696.736 1119.15 691.838C1280.03 653.354 1527.67 612.883 1872.49 623.603" stroke="#FE6B00" stroke-miterlimit="10"/>
<path d="M-4445.46 405.95C-4267.45 428.535 -4115.9 444.976 -4003.89 455.214C-3685.42 484.483 -3606.35 473.763 -3462.93 515.921C-3317.54 558.801 -3288.65 603.548 -3138.21 627.638C-3050.97 641.335 -2959.49 644.904 -2869.6 638.117C-2699.71 629.203 -2681.92 563.016 -2522.36 516.583C-2329.96 460.634 -2124.16 482.135 -2079.36 476.293C-1854.01 499.66 -1708.07 599.031 -1629.77 656.606C-1614.18 668.048 -1604.51 678.829 -1595.73 686.056C-1368.08 875.583 -1517.54 1022.65 -1312.29 1091.25C-1174.36 1137.38 -978.889 1120.64 -871.049 1116.12C-761.233 1111.54 -683.813 1099.08 -611.554 1087.75C-528.972 1074.81 -452.1 1056.02 -340.857 1062.1C-307.971 1064.04 -274.772 1063.74 -242.022 1061.2C-67.4141 1047.22 -13.3845 1052.94 182.088 1011.57C263.902 994.286 331.988 970.497 401.721 945.323C569.41 884.616 717.333 761.698 1045.46 671.722C1063.99 666.663 1083.53 661.604 1104.11 656.545C1266.3 617.219 1517.45 575.122 1867.33 584.818" stroke="#FE6B00" stroke-miterlimit="10"/>
<path d="M-4439.53 413.539C-4265.03 436.123 -4116.23 453.347 -4004.66 464.248C-3695.75 494.36 -3614.15 485.206 -3471.39 527.484C-3328.63 569.761 -3297.99 613.364 -3152.05 637.514C-3024.88 658.533 -2918.91 654.016 -2888.49 650.101C-2726.29 629.022 -2701.25 581.144 -2544.32 536.758C-2356.54 483.64 -2158.32 503.213 -2109.34 495.625C-1891.03 516.703 -1745.3 608.426 -1664.37 662.026C-1648.55 672.565 -1639 682.803 -1630.1 689.548C-1397.73 865.163 -1534.67 1004.76 -1333.6 1068.6C-1193.69 1113.05 -997.012 1095.4 -885.329 1091.19C-773.645 1086.97 -695.346 1075.65 -621.77 1066.07C-537.76 1055.17 -458.253 1038.85 -350.194 1049.27C-317.583 1052.58 -284.217 1053 -251.359 1050.53C-76.9712 1036.56 -26.5655 1035.3 164.954 988.624C244.241 969.352 310.79 943.636 380.633 917.378C541.295 857.153 695.367 730.079 1029.32 637.273C1047.99 632.094 1067.75 626.915 1088.62 621.735C1252.25 581.505 1506.91 537.782 1861.72 546.454" stroke="#FE6B00" stroke-miterlimit="10"/>
<path d="M-4433.6 420.887C-4263.06 443.652 -4116.67 461.719 -4004.99 473.041C-3705.96 503.876 -3621.95 496.469 -3479.85 538.746C-3340.38 580.301 -3307.44 623.061 -3165.77 647.151C-3042.12 668.169 -2939.11 665.58 -2908.25 661.846C-2749.24 642.453 -2721.57 599.091 -2567.16 556.754C-2383.99 506.406 -2193.79 524.172 -2140.2 514.596C-1928.8 533.326 -1783.63 616.978 -1699.95 667.145C-1687.59 675.307 -1676.01 683.81 -1665.24 692.62C-1428.37 854.324 -1552.46 986.396 -1356.22 1045.54C-1214.23 1088.24 -1016.34 1069.63 -900.923 1065.83C-789.898 1062.1 -708.305 1051.8 -633.301 1044.03C-547.754 1035.18 -465.611 1021.75 -360.846 1036.02C-328.414 1040.73 -294.616 1041.92 -261.353 1039.51C-87.0746 1025.48 -40.4025 1017.35 147.273 965.257C224.145 943.998 288.936 916.475 359.329 888.893C513.071 828.668 673.183 697.98 1012.95 602.344C1031.77 597.044 1051.76 591.744 1072.91 586.444C1237.64 545.311 1496.04 499.962 1855.9 507.67" stroke="#FE6B00" stroke-miterlimit="10"/>
<path d="M-4427.67 428.294C-4261.08 450.938 -4117.11 469.608 -4005.21 481.894C-3716.17 513.572 -3629.75 507.851 -3487.75 550.129C-3351.25 591.021 -3316.33 632.697 -3179.06 656.666C-3058.26 677.685 -2958.77 677.022 -2927.03 673.469C-2771.09 655.943 -2740.34 616.918 -2589.02 576.567C-2410.46 529.05 -2227.61 544.949 -2170.07 533.747C-1965.7 550.129 -1821.29 626.313 -1734.43 672.264C-1721.96 679.751 -1710.27 687.613 -1699.4 695.812C-1457.8 843.543 -1569.04 967.968 -1377.63 1022.53C-1233.56 1063.54 -1034.57 1044.09 -915.418 1040.6C-803.405 1037.23 -719.945 1028.01 -643.623 1022.05C-552.904 1015.21 -460.873 1015.47 -370.29 1022.83C-331.635 1025.54 -299.129 1030.84 -270.467 1028.85C-96.4081 1014.76 -53.4699 999.887 130.362 942.312C204.379 919.125 267.962 889.615 339.013 860.828C486.057 801.085 651.88 666.242 997.911 567.774C1016.8 562.414 1037.12 556.934 1058.64 551.454C1224.9 509.296 1486.92 462.441 1851.4 469.187" stroke="#FE6B00" stroke-miterlimit="10"/>
<path d="M-4421.19 438.653C-4258.55 461.238 -4116.89 480.811 -4004.99 493.639C-3726.27 525.979 -3637.43 521.944 -3496.76 564.402C-3363.11 604.633 -3326.32 645.284 -3193.33 669.193C-3076.49 690.212 -2979.63 691.416 -2947.02 688.104C-2793.93 672.626 -2760.88 637.696 -2611.86 599.393C-2438.02 554.706 -2262.75 568.739 -2201.03 555.79C-2003.36 569.823 -1860.6 638.057 -1770.12 680.576C-1757.54 687.377 -1745.69 694.576 -1734.64 702.136C-1489.21 835.895 -1586.5 952.611 -1400.14 1002.66C-1253.76 1041.98 -1053.89 1021.69 -930.9 1018.5C-818.118 1015.55 -732.681 1007.42 -655.041 1003.26C-566.529 998.502 -484.057 1002.54 -380.5 1012.84C-341.296 1016.75 -308.9 1023.07 -280.348 1020.78C-106.509 1006.69 -67.1946 985.072 112.794 921.896C184.175 896.782 246.221 865.405 317.821 835.293C458.276 776.152 629.809 637.154 981.221 535.796C1000.33 530.255 1020.76 524.714 1042.61 519.053C1210.19 476.173 1475.39 427.572 1845.26 433.293" stroke="#FE6B00" stroke-miterlimit="10"/>
<path d="M-4415.81 464.729C-4257.13 487.313 -4117.88 507.489 -4005.87 521.16C-3736.49 554.103 -3645.23 552.055 -3505.21 594.212C-3374.53 633.78 -3335.77 673.468 -3207.06 697.257C-3093.73 718.275 -2999.95 721.346 -2966.35 718.275C-2816.12 704.965 -2780.65 674.01 -2634.26 637.755C-2465.14 595.597 -2297.45 608.124 -2231.46 593.309C-2041.03 605.354 -1910.24 674.973 -1805.15 704.303C-1791.2 712.493 -1779.12 719.118 -1769.46 723.816C-1519.85 843.542 -1603.2 952.669 -1422.11 998.199C-1273.31 1035.72 -1072.56 1014.58 -945.836 1011.75C-832.286 1009.22 -744.872 1002.17 -665.915 999.705C-575.865 996.995 -491.856 1005 -390.825 1018.07C-351.071 1023.19 -318.785 1030.54 -290.343 1028.19C-116.613 1014.1 -81.033 986.034 95.0025 917.016C163.857 890.096 224.366 856.792 296.515 825.294C430.491 766.816 607.625 623.542 964.857 519.353C984.111 513.772 1004.79 508.071 1026.9 502.249C1195.91 458.767 1464.96 408.54 1839.43 413.538" stroke="#FE6B00" stroke-miterlimit="10"/>
<path d="M-4410.21 488.219C-4255.15 510.803 -4118.31 531.641 -4006.19 546.035C-3746.59 579.52 -3652.47 579.52 -3513.67 621.918C-3385.95 660.763 -3345.21 699.487 -3220.9 723.216C-3111.08 744.174 -3020.37 748.871 -2985.67 746.282C-2838.19 735.261 -2800.41 708.22 -2656.22 674.012C-2491.5 634.866 -2331.71 645.285 -2261.43 628.723C-2078.04 638.118 -1948.57 701.414 -1839.85 725.805C-1828.45 732.038 -1816.39 737.89 -1803.72 743.331C-1550.26 849.146 -1619.34 950.082 -1443.63 991.577C-1292.3 1027.29 -1090.9 1005.31 -960.439 1002.9C-846.01 1000.73 -756.62 994.769 -676.454 994.227C-584.867 993.564 -499.21 1005.67 -400.376 1021.39C-360.183 1027.77 -327.897 1036.08 -299.455 1033.43C-126.055 1019.28 -93.9885 984.531 78.0935 909.912C143.983 881.185 203.394 846.014 275.763 813.131C403.259 755.436 585.884 607.765 948.937 500.685C968.264 494.663 989.239 489.122 1011.64 483.22C1181.97 438.473 1454.2 386.861 1834.06 390.414" stroke="#FE6B00" stroke-miterlimit="10"/>
<path d="M-4404.06 511.705C-4253.06 534.289 -4118.54 555.789 -4006.52 571.026C-3756.69 604.873 -3660.82 606.86 -3522.12 649.318C-3397.37 687.501 -3354.65 725.262 -3234.62 748.87C-3128.1 769.828 -3040.69 771.575 -3005 774.044C-2860.59 784.162 -2820.18 742.125 -2679.06 710.025C-2519.28 673.89 -2366.86 682.261 -2292.29 663.893C-2115.82 670.939 -1987.88 727.671 -1874.99 747.123C-1863.48 752.744 -1851.3 757.935 -1838.53 762.661C-1581.34 854.504 -1635.92 947.31 -1465.15 984.71C-1311.41 1018.56 -1109.24 995.851 -974.935 993.744C-859.628 991.997 -768.371 987.179 -686.887 988.384C-593.763 989.769 -506.678 1006.09 -409.93 1024.52C-369.188 1032.17 -337.122 1041.38 -308.68 1039.09C-135.39 1024.88 -106.837 983.626 61.0718 903.226C124.875 872.692 182.419 835.593 255.556 801.326C376.354 744.473 564.799 592.346 933.672 482.135C953.219 476.353 974.341 470.331 997.036 464.067C1168.68 418.417 1444.54 364.937 1829.33 367.708" stroke="#FE6B00" stroke-miterlimit="10"/>
<path d="M-4398.13 535.253C-4251.08 558.078 -4119.08 579.939 -4006.85 595.959C-3766.79 630.167 -3668.62 634.262 -3530.58 676.781C-3408.79 714.24 -3364.1 750.797 -3248.46 774.887C-3145.34 795.845 -3060.89 798.977 -3024.44 802.168C-2883.65 814.213 -2840.05 776.392 -2701.47 746.34C-2546.41 712.675 -2401.45 719.54 -2322.71 699.365C-2153.26 704.123 -2026.21 754.169 -1910.46 768.744C-1898.84 773.767 -1886.54 778.297 -1873.67 782.294C-1612.97 860.225 -1652.39 944.901 -1488 978.205C-1331.29 1010.06 -1128.79 986.637 -990.858 984.95C-874.673 983.565 -781.438 979.891 -698.637 982.903C-603.975 986.335 -515.464 1006.99 -420.802 1027.65C-379.621 1036.68 -347.554 1046.8 -319.222 1044.45C-146.151 1030.24 -120.894 982.541 43.1718 896.3C104.449 863.959 160.456 824.994 234.032 789.28C349.12 733.332 542.396 576.687 917.089 464.067C936.783 458.085 958.124 452.062 981.112 446C1154.18 399.506 1433.45 344.401 1823.29 346.208" stroke="#FE6B00" stroke-miterlimit="10"/>
<path d="M-4392.2 558.74C-4249.44 581.265 -4119.52 604.029 -4007.18 620.892C-3776.57 655.341 -3676.41 661.725 -3539.03 704.183C-3420.1 740.98 -3373.54 776.874 -3262.19 800.543C-3162.58 821.501 -3081.1 826.018 -3043.76 829.932C-2906.71 844.205 -2859.82 810.239 -2723.87 782.294C-2573.53 751.399 -2436.15 756.458 -2353.13 734.476C-2190.6 736.885 -2065.41 780.367 -1945.49 790.003C-1933.73 794.407 -1921.32 798.255 -1908.37 801.506C-1644.81 865.766 -1668.53 941.649 -1509.96 971.28C-1351.38 1000.91 -1147.57 977.302 -1005.79 975.796C-888.838 974.773 -793.628 972.183 -709.289 977.001C-613.2 982.481 -523.26 1007.11 -430.575 1030.6C-388.955 1041.02 -356.888 1051.92 -328.666 1049.63C-155.815 1035.36 -133.742 981.337 25.6015 889.133C84.5728 855.046 139.042 814.214 213.058 776.995C321.996 722.13 520.544 560.848 900.947 445.096C920.714 439.074 942.348 433.052 965.629 426.487C1139.8 378.849 1422.68 322.118 1817.47 323.202" stroke="#FE6B00" stroke-miterlimit="10"/>
<path d="M-4386.27 582.168C-4247.13 604.692 -4119.85 628.059 -4007.4 645.705C-3786.89 680.395 -3684.21 689.007 -3547.49 731.525C-3431.52 767.66 -3382.77 802.53 -3276.02 825.897C-3179.72 846.856 -3101.2 852.758 -3063.09 857.395C-2929.66 873.595 -2879.7 843.844 -2746.16 817.948C-2600.65 789.762 -2470.85 793.135 -2383.77 769.346C-2228.27 769.346 -2104.5 806.264 -1980.85 810.962C-1968.86 814.745 -1956.3 817.949 -1943.29 820.537C-1675.78 871.247 -1684.57 938.216 -1531.92 964.233C-1369.5 991.877 -1166.34 967.365 -1020.73 966.522C-903.005 965.799 -805.817 964.354 -720.38 970.979C-622.754 978.507 -531.606 1007.78 -440.788 1033.37C-398.729 1045.42 -366.772 1056.92 -338.549 1054.57C-165.808 1040.36 -146.92 979.952 8.0308 881.786C64.5862 845.952 117.847 803.494 191.863 764.528C294.871 710.748 498.47 544.829 884.694 426.186C904.681 420.043 926.461 413.7 950.035 407.155C1125.74 358.975 1412.14 300.557 1811.98 300.377" stroke="#FE6B00" stroke-miterlimit="10"/>
<path d="M-4380.34 605.775C-4245.15 628.299 -4120.29 652.209 -4007.73 670.758C-3796.88 705.568 -3691.9 716.528 -3555.95 759.168C-3442.94 794.519 -3392.43 828.486 -3289.75 851.733C-3222.53 866.188 -3153.16 877.431 -3082.42 885.338C-2952.61 903.406 -2899.57 877.87 -2768.56 854.082C-2627.89 828.607 -2505 829.992 -2413.97 804.637C-2265.49 802.409 -2143.05 832.642 -2015.66 832.461C-2003.48 835.605 -1990.8 838.126 -1977.78 839.989C-1707.85 877.087 -1700.38 934.963 -1553.89 957.427C-1388.39 982.782 -1185.01 959.354 -1035.77 957.427C-917.171 955.921 -818.116 956.825 -731.251 965.196C-632.417 974.772 -539.732 1008.5 -450.781 1036.38C-408.392 1049.63 -376.325 1062.16 -348.212 1059.81C-175.691 1045.54 -159.768 978.867 -9.31953 874.678C44.8199 837.158 96.4337 792.713 170.999 752.302C267.967 699.666 476.618 529.049 868.662 407.516C888.758 401.493 910.721 394.808 934.551 388.123C1111.68 338.92 1401.6 278.936 1806.38 277.792" stroke="#FE6B00" stroke-miterlimit="10"/>
<path d="M-4374.41 629.324C-4242.63 651.848 -4120.62 676.239 -4008.06 695.571C-3806.88 730.381 -3699.7 743.751 -3564.29 786.45C-3454.48 821.079 -3401.87 854.143 -3303.59 877.269C-3238.08 892.112 -3170.6 904.192 -3101.75 913.404C-2975.35 933.218 -2919.45 911.958 -2790.97 890.398C-2655.12 867.513 -2540.15 867.452 -2444.39 840.11C-2302.83 835.473 -2181.81 859.141 -2050.8 854.022C-2038.4 856.505 -2025.61 858.36 -2012.59 859.563C-1739.58 883.352 -1716.08 931.833 -1575.85 950.864C-1407.17 973.749 -1203.79 950.02 -1050.71 948.575C-931.227 947.491 -830.306 949.478 -742.124 959.656C-641.532 971.28 -548.078 1009.46 -460.665 1039.63C-418.166 1054.33 -385.88 1067.64 -357.876 1065.29C-185.465 1050.96 -172.507 978.025 -26.7804 867.814C25.1627 828.547 75.3488 782.355 150.024 740.378C241.391 688.946 454.874 513.572 852.848 389.088C873.054 382.764 895.347 376.139 919.506 369.274C1098.07 319.227 1391.72 257.617 1801.22 255.449" stroke="#FE6B00" stroke-miterlimit="10"/>
<path d="M-4368.59 652.872C-4241.2 675.336 -4120.95 700.269 -4008.39 720.685C-3817.2 755.555 -3707.38 771.334 -3572.75 814.093C-3465.68 848.06 -3411.32 880.34 -3317.32 903.166C-3253.52 918.12 -3188 930.754 -3121.18 940.987C-2998.08 962.487 -2939.33 945.624 -2813.7 926.171C-2682.58 905.996 -2575.18 904.25 -2475.13 875.041C-2340.61 868.115 -2221.02 885.158 -2086.17 875.041C-2073.55 876.884 -2060.64 878.074 -2047.62 878.594C-1771.54 889.193 -1732.34 927.858 -1598.14 943.697C-1426.28 964.053 -1222.9 940.083 -1065.97 939.24C-945.724 938.517 -842.826 941.589 -753.326 953.574C-651.196 967.245 -556.755 1009.88 -470.988 1042.34C-428.27 1058.55 -395.874 1072.46 -367.87 1070.23C-195.679 1055.9 -185.356 976.64 -44.4618 860.406C5.17517 819.453 54.3731 771.575 128.719 727.912C214.815 677.745 432.69 497.854 836.594 370.177C856.91 363.733 879.423 356.988 903.912 350.002C1083.79 299.112 1380.73 235.816 1795.51 232.865" stroke="#FE6B00" stroke-miterlimit="10"/>
<path d="M-4362.66 676.42C-4239.22 698.944 -4121.06 724.238 -4008.72 745.739C-3826.64 780.488 -3715.18 798.857 -3581.2 841.616C-3476.99 874.86 -3420.76 906.117 -3331.15 928.942C-3269.05 944.236 -3205.4 957.568 -3140.51 968.871C-3020.7 992.057 -2959.31 979.531 -2835.77 962.246C-2709.48 944.661 -2609.55 941.288 -2505.22 910.333C-2377.62 901.058 -2259.46 911.477 -2120.87 896.541C-2107.98 897.485 -2094.99 897.987 -2081.99 898.047C-1803.06 904.852 -1747.71 924.244 -1619.78 937.012C-1444.73 954.477 -1241.24 929.424 -1080.69 930.267C-959.889 930.929 -854.685 934.121 -763.867 947.913C-660.201 963.631 -564.99 1010.79 -480.651 1045.48C-437.713 1063.18 -405.098 1077.88 -377.204 1075.59C-205.122 1061.26 -197.435 975.797 -61.5924 853.541C-14.1517 810.841 33.6186 761.277 108.184 715.807C188.35 666.905 411.386 481.955 820.562 351.628C841.134 345.044 863.793 338.198 888.538 331.092C1069.74 279.178 1370.3 214.316 1790.02 210.221" stroke="#FE6B00" stroke-miterlimit="10"/>
<path d="M-4356.73 699.907C-4237.25 722.371 -4121.39 748.087 -4009.05 770.611C-3836.42 805.18 -3722.98 826.138 -3589.66 869.018C-3488.41 901.539 -3430.32 931.892 -3344.88 954.597C-3265.81 975.676 -3202.12 987.721 -3159.84 996.754C-3043.21 1021.51 -2979.19 1013.38 -2858.17 998.38C-2748.7 984.596 -2640.97 966.953 -2535.64 945.563C-2420.12 923.28 -2299.54 901.118 -2156.01 917.92C-2142.98 918.915 -2129.74 918.752 -2116.8 917.438C-1834.14 902.141 -1763.52 920.45 -1641.74 930.266C-1463.4 944.6 -1260.02 919.908 -1095.62 921.233C-973.616 922.196 -866.875 926.593 -774.739 942.131C-669.645 960.198 -573.555 1011.63 -490.644 1048.55C-447.596 1067.76 -414.651 1083.18 -386.758 1080.83C-215.005 1066.43 -209.734 974.712 -79.2725 846.434C-34.0282 801.988 12.6437 750.857 86.8795 703.641C161.115 656.425 389.643 466.597 804.199 332.898C824.845 326.333 848.126 319.287 872.834 312C1055.46 259.243 1359.43 192.755 1784.31 187.636" stroke="#FE6B00" stroke-miterlimit="10"/>
<path d="M-4350.8 723.455C-4235.27 745.918 -4121.61 771.634 -4009.27 795.724C-3846.19 830.112 -3730.67 853.72 -3598.12 896.661C-3499.28 928.459 -3439.76 957.909 -3358.72 980.493C-3283.06 1001.63 -3221.56 1014.82 -3179.17 1024.64C-3065.62 1050.96 -2999.18 1047.16 -2880.58 1034.45C-2764.06 1021.99 -2686.75 1006.09 -2566.07 980.855C-2457.35 958.09 -2341.6 953.693 -2191.04 939.3C-2177.21 937.975 -2163.92 938.095 -2151.51 936.891C-1865.33 908.706 -1779.34 916.535 -1663.7 923.521C-1482.18 934.421 -1278.69 910.452 -1110.67 912.199C-987.786 913.524 -879.067 919.064 -785.614 936.289C-678.982 956.163 -582.234 1012.29 -500.641 1051.5C-457.483 1072.22 -423.769 1088.36 -396.425 1086.01C-224.892 1071.61 -221.927 973.568 -96.4069 839.086C-53.2491 792.894 -7.56553 740.317 66.231 691.174C135.745 644.922 368.226 450.577 788.492 313.987C809.358 307.302 832.419 300.135 857.786 292.668C1041.73 239.068 1349.32 170.954 1779.04 164.811" stroke="#FE6B00" stroke-miterlimit="10"/>
<path d="M-4344.32 746.944C-4232.75 769.407 -4121.17 795.605 -4009.05 820.478C-3855.31 854.625 -3737.91 880.703 -3606.03 923.944C-3510.59 955.02 -3448.66 983.567 -3371.9 1006.09C-3299.75 1027.17 -3240.89 1041.44 -3197.95 1052.28C-3087.36 1080.17 -3018.51 1080.71 -2902.32 1070.35C-2790.75 1060.35 -2720.14 1044.15 -2595.93 1016.15C-2493.7 992.901 -2380.04 982.001 -2225.63 960.741C-2211.91 958.874 -2198.29 958.091 -2185.66 956.345C-1895.75 915.332 -1794.28 923.643 -1685.12 916.777C-1499.17 905.577 -1312.08 901.071 -1125.06 903.287C-1001.29 904.913 -890.708 911.598 -795.607 930.749C-687.438 952.671 -590.141 1013.32 -510.085 1054.75C-466.927 1076.98 -433.213 1093.78 -405.54 1091.49C-234.117 1077.04 -233.567 972.726 -113.209 832.523C-72.1376 784.644 -27.2228 730.623 45.9148 679.492C110.157 634.625 346.921 435.281 773.008 295.861C793.983 289.055 816.935 281.768 842.961 274.18C1028.33 219.616 1339.33 149.876 1774.09 142.83" stroke="#FE6B00" stroke-miterlimit="10"/>
<path d="M-4338.94 763.866C-4231.32 786.329 -4121.83 812.708 -4009.49 838.845C-3864.97 872.631 -3745.93 901.72 -3614.15 944.781C-3521.58 974.893 -3457.77 1002.84 -3385.29 1025.18C-3316.66 1046.32 -3260.32 1061.68 -3217.06 1073.36C-3109.11 1102.75 -3038.16 1107.63 -2924.39 1099.62C-2817.65 1092.09 -2753.41 1075.89 -2626.02 1044.33C-2530.04 1020.54 -2418.03 1003.38 -2260.34 975.074C-2246.61 972.604 -2232.99 970.978 -2220.03 968.63C-1926.17 914.909 -1809.65 909.85 -1706.75 902.985C-1518.65 890.291 -1329.14 884.998 -1139.66 887.146C-1015.13 889.133 -902.568 896.962 -806.588 917.92C-696.772 942.01 -599.036 1006.99 -519.748 1050.41C-476.7 1074.14 -442.877 1091.73 -414.874 1089.38C-243.67 1074.87 -245.207 964.293 -130.34 818.008C-91.3548 768.322 -46.8794 712.976 25.2699 659.858C84.4608 616.315 325.398 412.033 757.305 269.722C778.39 262.796 802 255.389 827.917 247.68C1014.6 192.213 1329.23 120.847 1768.93 112.777" stroke="#FE6B00" stroke-miterlimit="10"/>
<path d="M-4333.34 772.96C-4229.67 795.424 -4122.05 821.803 -4010.59 849.325C-3875.29 882.75 -3754.06 914.489 -3623.81 957.73C-3534.09 987.3 -3468.53 1014.22 -3400.34 1036.38C-3335.11 1057.58 -3281.3 1073.9 -3237.59 1086.79C-3132.28 1117.69 -3059.25 1126.84 -2948 1121.24C-2846.1 1116.12 -2787.78 1100.34 -2657.65 1065.11C-2567.82 1041.02 -2457.13 1017.41 -2296.68 982C-2282.85 978.989 -2269.12 976.52 -2256.05 973.569C-1957.79 907.021 -1827.11 888.411 -1729.92 881.726C-1540.71 868.778 -1335.24 860.467 -1155.91 863.659C-1030.5 865.887 -916.075 874.921 -818.667 897.686C-707.424 923.703 -609.248 993.262 -530.949 1039.27C-487.901 1064.57 -453.309 1082.76 -425.745 1080.41C-254.651 1065.95 -258.385 948.997 -148.898 796.749C-112 745.317 -67.7437 688.706 3.08782 633.48C57.3371 591.323 302.337 382.102 740.065 236.9C761.369 229.914 785.09 222.326 811.336 214.437C999.451 158.127 1317.48 85.1342 1762.23 75.9198" stroke="#FE6B00" stroke-miterlimit="10"/>
<path d="M-4327.19 781.633C-4227.37 804.036 -4121.5 830.415 -4010.59 859.443C-3880.92 892.763 -3754.53 929.792 -3631.94 970.377C-3545.08 999.285 -3478.2 1025.36 -3413.74 1047.28C-3352.13 1068.66 -3300.74 1085.89 -3256.59 1099.8C-3153.8 1132.26 -3078.8 1145.63 -2970.08 1142.5C-2872.89 1139.73 -2820.18 1124.73 -2687.74 1085.53C-2603.62 1060.65 -2494.13 1031.02 -2331.39 988.565C-2317.55 984.951 -2303.71 981.639 -2290.43 978.146C-1987.88 898.77 -1844.02 863.418 -1751.56 860.105C-1558.39 853.36 -1353.69 836.015 -1170.52 839.81C-1044.23 842.279 -927.935 852.637 -829.211 877.149C-716.429 905.214 -617.924 979.531 -540.613 1027.71C-497.785 1054.51 -462.644 1073.42 -435.08 1071.13C-264.206 1056.56 -270.355 933.278 -166.03 775.068C-129.19 715.803 -79.3328 659.217 -17.5585 606.559C31.8589 565.667 280.812 351.568 724.25 203.476C745.664 196.369 769.605 188.66 796.18 180.65C985.613 123.437 1307.27 48.8186 1756.96 38.761" stroke="#FE6B00" stroke-miterlimit="10"/>
<path d="M-4321.26 789.944C-4086 844.952 -3858.44 909.365 -3640.4 982.663C-3289.64 1100.64 -3193.77 1164.36 -2992.48 1163.34C-2845.88 1162.55 -2811.28 1128.35 -2366.53 994.708C-2032.03 894.193 -1864.78 844.146 -1773.52 838.124C-1445.61 817.105 -1087.17 791.088 -840.082 856.191C-661.96 903.106 -521.615 1067.46 -444.743 1060.95C-216.874 1041.56 -306.814 817.045 -38.423 579.157C6.27224 539.529 259.069 320.613 708.328 169.629C882.716 111.031 1232.81 13.587 1751.58 1" stroke="#FE6B00" stroke-miterlimit="10"/>
</g>
</svg>
